<svg version="1.1" id="svg2" xml:space="preserve" viewBox="5.909935315533981 0 462.1569416747573 334.19280955999994" xmlns="http://www.w3.org/2000/svg" style="max-height: 500px" width="462.1569416747573" height="334.19280955999994"><metadata id="metadata8">image/svg+xml</metadata><defs id="defs6"><clipPath clipPathUnits="userSpaceOnUse" id="clipPath18"><path d="M 0,442.835 H 365.234 V 0 H 0 Z" id="path16"/></clipPath></defs><g id="g10" transform="matrix(1.3333333,0,0,-1.3333333,0,590.44667)"><g id="g12"><g id="g14" clip-path="url(#clipPath18)"><g id="g20" transform="translate(168.002,400.0439)"><path d="m 0,0 h -7.312 c -1.105,0 -2.001,-0.896 -2.001,-2 0,-1.104 0.896,-2 2.001,-2 H 0 c 1.104,0 2,0.896 2,2 0,1.104 -0.896,2 -2,2" style="fill:#58698b;fill-opacity:1;fill-rule:nonzero;stroke:none" id="path22"/></g><g id="g24" transform="translate(186.2422,400.0439)"><path d="m 0,0 h -7.312 c -1.106,0 -2.001,-0.896 -2.001,-2 0,-1.104 0.895,-2 2.001,-2 H 0 c 1.104,0 2,0.896 2,2 0,1.104 -0.896,2 -2,2" style="fill:#58698b;fill-opacity:1;fill-rule:nonzero;stroke:none" id="path26"/></g><g id="g28" transform="translate(204.1172,400.0439)"><path d="m 0,0 h -7.312 c -1.106,0 -2.001,-0.896 -2.001,-2 0,-1.104 0.895,-2 2.001,-2 H 0 c 1.104,0 2,0.896 2,2 0,1.104 -0.896,2 -2,2" style="fill:#58698b;fill-opacity:1;fill-rule:nonzero;stroke:none" id="path30"/></g><g id="g32" transform="translate(147.9707,425.1528)"><path d="M 0,0 C 0.146,-0.358 0.341,-0.727 0.661,-0.966 1.483,-1.578 2.519,-2.547 2.021,-3.894 1.939,-4.117 2.024,-4.366 2.226,-4.492 2.382,-4.588 2.57,-4.589 2.724,-4.507 l 10e-4,-0.002 c 0.552,0.292 0.987,0.214 1.641,0.096 0.358,-0.065 0.764,-0.138 1.242,-0.154 0.082,-0.003 0.163,-0.004 0.245,-0.004 0.808,0 1.519,0.152 2.105,0.409 -0.08,-2.621 -0.437,-5.214 -3.417,-5.919 -0.19,-0.045 -0.337,-0.197 -0.375,-0.389 -0.087,-0.434 0.271,-0.658 0.812,-0.998 1.126,-0.706 3.419,-2.157 3.022,-5.175 -0.224,-0.065 -0.441,-0.143 -0.675,-0.181 -3.973,-0.652 -7.923,2.55 -8.513,3.053 -0.154,0.344 -0.287,0.706 -0.402,1.084 1.245,0.914 1.893,2.106 1.868,3.456 -0.033,1.862 -1.315,3.582 -2.191,4.183 C -1.595,-3.177 -0.96,-1.501 0,0 m 14.811,-8.304 c 0.051,0.225 -0.058,0.456 -0.264,0.559 -0.751,0.375 -1.242,1.899 -1.029,3.195 0.113,0.688 0.517,1.87 1.958,2.071 1.416,0.19 2.155,-0.637 2.369,-1.41 0.298,-1.08 -0.259,-2.533 -2.174,-3.343 -0.196,-0.083 -0.318,-0.281 -0.305,-0.494 0.015,-0.212 0.162,-0.393 0.367,-0.449 0.609,-0.166 1.239,-0.14 1.822,0.025 0.854,-3.043 2.166,-6.071 6.421,-7.717 0.693,-0.268 1.338,-0.385 1.937,-0.385 2.996,0 4.848,2.939 5.926,4.65 0.192,0.305 0.357,0.566 0.505,0.772 0.955,0.622 1.24,1.52 1.355,2.443 0.14,1.12 0.378,2.405 1.039,2.405 h 10e-4 c 0.276,-0.023 0.366,-0.835 0.439,-1.487 0.104,-0.938 0.222,-2.002 0.862,-2.689 0.307,-0.329 0.714,-0.556 1.181,-0.724 1.234,-3.338 3.585,-5.198 6.828,-5.363 4.21,-0.209 6.766,5.957 7.612,7.985 0.086,0.207 0.024,0.446 -0.152,0.585 -1.244,0.98 -1.784,2.615 -1.313,3.976 0.157,0.451 0.413,0.821 0.744,1.105 1.637,0.343 2.847,0.168 3.424,-0.519 0.45,-0.537 0.5,-1.419 0.128,-2.247 -0.367,-0.816 -1.044,-1.355 -1.724,-1.374 -0.039,-0.002 -0.078,-0.007 -0.115,-0.017 -0.676,-0.181 -0.576,-0.69 -0.562,-0.748 0.11,-0.463 0.712,-0.6 1.328,-0.6 0.313,0 0.618,0.038 0.875,0.084 0.433,-1.781 1.564,-6.207 5.533,-8.447 1.036,-0.584 2.133,-0.822 3.227,-0.822 2.442,0 4.87,1.184 6.575,2.332 -2.079,-3.223 -5.608,-4.577 -9.692,-3.629 -3.959,0.917 -5.483,4.177 -6.132,5.569 -0.275,0.586 -0.394,0.908 -0.833,0.887 -0.179,-0.01 -0.391,-0.181 -0.471,-0.341 l -0.06,-0.12 c -1.337,-2.72 -4.302,-7.179 -9.105,-6.491 -5.478,1.083 -7.357,5.289 -7.974,6.672 -0.22,0.494 -0.373,0.817 -0.783,0.757 -0.212,-0.031 -0.417,-0.285 -0.456,-0.496 -0.755,-4.097 -3.816,-6.733 -5.261,-7.215 h -5.648 c -3.251,1.169 -5.271,3.603 -6,7.243 -0.073,0.372 -0.169,0.767 -0.59,0.751 -0.437,-0.005 -0.515,-0.437 -0.537,-0.567 -1.614,-6.493 -4.909,-7.056 -6.68,-7.359 -0.137,-0.023 -0.261,-0.045 -0.379,-0.068 H 5.406 c -0.832,0 -3.356,1.08 -5.233,3.381 1.518,-0.929 3.7,-1.934 6.05,-1.934 0.417,0 0.839,0.032 1.264,0.101 3.55,0.581 6.014,3.78 7.324,9.507 m 4.053,3.233 c -0.064,-0.813 -0.381,-1.443 -0.915,-1.822 -0.024,-0.018 -0.05,-0.035 -0.075,-0.051 0.553,0.578 0.869,1.23 0.99,1.873 m 11.575,-5.422 c -0.526,-0.098 -1.08,-0.136 -1.617,-0.174 -1.1,-0.077 -2.229,-0.155 -3.06,-0.792 -0.017,1.004 -0.038,2.379 -0.283,3.493 -0.519,2.359 -0.572,3.43 0.447,3.954 0.275,0.141 0.546,0.264 0.801,0.381 1.119,0.509 2.277,1.036 2.005,2.528 -0.116,0.636 -0.526,1.394 -1.824,1.394 -0.404,0 -0.835,-0.066 -1.25,-0.13 L 25.215,0.095 c -1.039,-0.14 -2.76,-0.049 -3.155,1.659 -0.359,1.546 -1.323,2.829 -1.922,3.614 1.556,-0.059 2.383,0.726 3.186,1.458 l 0.349,0.314 c 0.265,0.232 0.978,0.771 1.873,0.771 0.724,0 1.387,-0.365 2.013,-1.129 0.977,-0.947 1.675,-1.351 2.335,-1.351 0.483,0 0.923,0.228 1.308,0.676 0.678,0.791 0.142,1.575 -0.289,2.205 -0.305,0.445 -0.619,0.905 -0.725,1.463 -0.322,1.709 -0.01,2.664 1.111,3.407 0.559,0.371 2.064,1.444 2.789,2.693 0.564,-1.033 1.21,-1.926 2.335,-3.083 0.958,-0.984 0.764,-1.643 0.471,-2.641 C 36.813,9.873 36.729,9.586 36.666,9.283 36.358,7.784 36.639,5.407 38.219,5.069 c 0.829,-0.184 1.519,0.703 2.195,1.645 0.468,0.653 0.989,1.372 1.537,1.6 L 41.877,8.159 c 0.357,-0.172 0.75,-0.49 1.166,-0.826 0.483,-0.391 0.983,-0.795 1.546,-1.077 0.277,-0.138 0.515,-0.298 0.743,-0.45 C 45.774,5.51 46.229,5.208 46.838,5.103 46.729,4.8 46.619,4.468 46.506,4.127 46.274,3.428 46.035,2.705 45.763,2.095 45.305,1.071 44.299,0.307 43.004,-0.024 c -0.216,0.021 -0.427,0.045 -0.618,0.075 -0.319,0.048 -0.619,0.094 -0.901,0.094 -0.812,0 -1.335,-0.417 -1.597,-1.274 -0.393,-1.277 0.703,-2.081 1.669,-2.79 0.737,-0.541 1.499,-1.101 1.605,-1.796 0.213,-1.396 -0.315,-3.309 -0.631,-4.452 -0.035,-0.129 -0.068,-0.249 -0.097,-0.357 -0.249,0.027 -0.51,0.04 -0.766,0.06 -0.017,0.003 -0.03,0.008 -0.047,0.011 L 41.62,-10.46 c -0.295,0.022 -0.587,0.05 -0.88,0.068 -1.626,0.101 -3.307,0.205 -3.968,0.915 -0.414,0.445 -0.513,1.334 -0.6,2.119 -0.119,1.069 -0.255,2.281 -1.349,2.372 -0.014,0.002 -0.121,0.006 -0.135,0.006 -1.573,0 -1.838,-2.136 -1.981,-3.283 -0.149,-1.198 -0.555,-1.908 -2.268,-2.23 m 34.252,-0.045 c 0.185,0.067 0.314,0.236 0.329,0.432 0.015,0.195 -0.086,0.382 -0.258,0.477 -2.459,1.346 -3.093,1.983 -3.233,3.241 -0.04,0.361 -0.152,0.658 -0.286,0.929 1.932,1.732 3.812,1.519 4.773,1.225 0.151,-0.047 0.394,-0.038 0.52,0.055 0.171,0.127 0.244,0.348 0.181,0.552 -0.466,1.498 0.817,3.741 1.331,4.183 1.527,-1.484 2.43,-3.433 2.888,-5.456 -0.603,-0.436 -1.493,-1.558 -1.816,-2.943 -0.284,-1.215 -0.206,-3.011 1.599,-4.799 -0.027,-0.086 -0.052,-0.176 -0.08,-0.259 -1.376,-1.265 -5.312,-3.966 -8.791,-3.256 -0.298,4.114 1.304,5.063 2.843,5.619 m 2.603,11.75 c -0.015,-0.015 -0.03,-0.027 -0.046,-0.043 0.004,0.023 0.011,0.049 0.014,0.071 0.011,-0.009 0.02,-0.019 0.032,-0.028 m 3.72,-12.712 c -0.802,0.96 -1.139,1.994 -0.985,3.084 0.15,1.062 0.71,1.897 1.121,2.36 0.28,-1.931 0.189,-3.856 -0.136,-5.444 m -23.362,-7.859 c 2.048,0.993 3.877,2.912 5.357,5.687 0.684,-1.445 2.298,-4.519 5.99,-5.687 z m -16.835,0 c 1.467,1.118 3.159,3.084 3.984,5.789 0.784,-1.595 2.471,-4.328 6.029,-5.789 z m -18.357,0 c 1.471,0.812 3.048,2.384 4.14,5.612 0.783,-2.488 2.222,-4.363 4.29,-5.612 z m 51.821,-3.25 H 4.947 c -0.62,0 -1.125,0.505 -1.125,1.125 0,0.62 0.505,1.125 1.125,1.125 h 59.334 c 0.62,0 1.125,-0.505 1.125,-1.125 0,-0.62 -0.505,-1.125 -1.125,-1.125 m 0,-11.25 H 4.947 c -0.62,0 -1.125,0.505 -1.125,1.125 0,0.62 0.505,1.125 1.125,1.125 h 59.334 c 0.62,0 1.125,-0.505 1.125,-1.125 0,-0.62 -0.505,-1.125 -1.125,-1.125 m -0.028,4.777 v -1.527 H 5.146 v 1.534 c 0.945,0.159 1.666,0.976 1.666,1.966 0,0.99 -0.721,1.807 -1.666,1.966 v 1.534 h 59.107 v -1.527 c -0.977,-0.132 -1.732,-0.96 -1.732,-1.973 0,-1.013 0.755,-1.841 1.732,-1.973 m -66.186,17.915 c -0.236,1.771 -0.277,3.406 -0.132,4.924 0.594,-0.624 1.322,-1.774 1.344,-3.006 0.016,-0.895 -0.38,-1.677 -1.132,-2.344 -0.025,0.143 -0.06,0.279 -0.08,0.426 m 5.535,-8.686 c -0.472,-0.39 -0.78,-0.972 -0.78,-1.631 0,-0.888 0.548,-1.648 1.324,-1.965 v -7.32 c -0.776,-0.316 -1.324,-1.077 -1.324,-1.965 0,-1.172 0.953,-2.125 2.125,-2.125 h 59.334 c 1.172,0 2.125,0.953 2.125,2.125 0,0.82 -0.471,1.525 -1.153,1.879 v 7.492 c 0.682,0.355 1.153,1.059 1.153,1.879 0,0.875 -0.531,1.627 -1.288,1.952 2.65,0.729 4.799,2.586 6.117,5.42 1.786,3.839 2,12.651 -4.001,16.585 C 67.049,2.556 66.848,2.549 66.68,2.455 66.382,2.285 66.344,1.962 66.303,1.62 66.263,1.283 66.213,0.863 65.97,0.619 c -0.65,-0.65 -1.205,-1.694 -1.221,-2.776 -1.039,0.212 -1.978,0.098 -3.546,-1.043 -0.288,-0.2 -0.657,-0.15 -1.014,-0.1 -0.319,0.045 -1.074,0.15 -1.192,-0.561 -0.076,-0.46 0.268,-0.786 0.601,-1.101 0.402,-0.381 0.857,-0.812 0.937,-1.536 0.174,-1.565 1.01,-2.418 2.867,-3.512 -1.492,-0.787 -2.719,-2.295 -2.562,-5.823 -0.175,0.074 -0.351,0.146 -0.521,0.242 -3.662,2.067 -4.69,6.313 -5.078,7.912 l -0.019,0.08 c 1.555,1.248 2.233,2.865 1.772,4.28 -0.477,1.466 -2.059,2.376 -4.128,2.376 h -10e-4 c -0.919,0 -1.724,-0.261 -2.362,-0.725 -0.067,-0.016 -0.126,-0.022 -0.195,-0.04 l 0.024,-0.097 c -0.482,-0.401 -0.858,-0.925 -1.08,-1.566 -0.569,-1.644 -0.017,-3.581 1.345,-4.839 -2.045,-4.784 -4.198,-7.167 -6.497,-7.036 -3.165,0.161 -4.823,2.144 -5.69,4.07 0.702,-0.112 1.474,-0.164 2.269,-0.214 0.262,-0.016 0.526,-0.034 0.79,-0.054 0.723,-0.137 1.327,-0.517 1.727,-0.772 0.297,-0.189 0.532,-0.339 0.771,-0.339 0.075,0 0.151,0.015 0.23,0.049 0.163,0.07 0.277,0.221 0.299,0.398 0.023,0.178 0.019,0.486 0.01,0.877 -0.016,0.732 -0.038,1.736 0.14,2.651 0.053,0.269 0.125,0.536 0.196,0.802 0.314,1.186 0.672,2.53 -0.556,3.963 -0.804,0.938 -1.727,1.31 -2.471,1.609 -0.459,0.185 -0.821,0.338 -1.002,0.557 -0.001,0.074 0.006,0.149 0.03,0.226 0.163,0.529 0.351,0.568 0.642,0.568 0.222,0 0.473,-0.041 0.751,-0.083 0.664,-0.101 1.546,-0.192 2.349,-0.037 2.525,0.485 3.275,3.199 3.595,4.358 0.175,0.636 0.913,1.404 1.353,1.863 0.425,0.442 0.639,0.664 0.488,1.016 -0.069,0.164 -0.251,0.291 -0.429,0.313 -2.249,0.277 -3.57,1.104 -4.63,1.768 -0.897,0.562 -1.672,1.048 -2.784,1.048 H 42.172 C 41.08,9.358 40.294,8.263 39.602,7.297 39.373,6.979 39.07,6.558 38.81,6.295 c -0.406,0.178 -0.484,0.375 -0.509,0.44 -0.173,0.449 0.185,1.227 0.531,1.98 0.462,1.004 0.939,2.041 0.529,2.945 -0.396,0.877 -1.134,1.488 -1.916,2.135 -0.858,0.711 -1.83,1.518 -2.64,2.869 -0.121,0.234 -0.242,0.475 -0.364,0.732 -0.1,0.211 -0.335,0.326 -0.561,0.274 -0.229,-0.051 -0.391,-0.253 -0.391,-0.487 0,-0.807 -1.102,-2.079 -2.743,-3.167 -1.871,-1.241 -1.806,-3.017 -1.54,-4.427 0.145,-0.764 0.553,-1.361 0.881,-1.841 0.472,-0.689 0.498,-0.824 0.355,-0.99 -0.251,-0.293 -0.433,-0.327 -0.548,-0.327 -0.361,0 -0.897,0.35 -1.6,1.026 -0.977,1.202 -2.033,1.454 -2.748,1.454 -0.869,0 -1.791,-0.371 -2.531,-1.018 L 22.65,7.565 C 21.915,6.896 21.334,6.367 20.232,6.367 c -0.127,0 -0.26,0.007 -0.302,0.002 -0.267,0.083 -0.452,0.119 -0.601,0.119 -0.369,0 -0.521,-0.228 -0.57,-0.326 -0.192,-0.387 0.055,-0.709 0.546,-1.351 0.583,-0.762 1.463,-1.913 1.78,-3.283 0.364,-1.571 1.65,-2.473 3.528,-2.473 0.26,0 0.508,0.019 0.735,0.049 l 0.463,0.068 c 0.377,0.058 0.769,0.119 1.097,0.119 0.618,0 0.773,-0.201 0.84,-0.573 0.122,-0.669 -0.251,-0.9 -1.436,-1.439 -0.269,-0.123 -0.553,-0.253 -0.843,-0.402 -1.868,-0.96 -1.389,-3.137 -0.967,-5.058 0.224,-1.016 0.244,-2.332 0.26,-3.294 0.019,-1.212 0.027,-1.715 0.608,-1.715 h 0.002 c 0.236,10e-4 0.422,0.141 0.539,0.396 0.479,0.911 1.444,1.023 2.981,1.129 0.565,0.04 1.149,0.081 1.731,0.19 0.05,0.009 0.086,0.024 0.134,0.034 -1.242,-1.947 -3.235,-4.725 -6.42,-3.493 -3.902,1.51 -5.046,4.247 -5.858,7.198 0.015,0.011 0.034,0.016 0.049,0.028 0.554,0.393 1.236,1.163 1.336,2.602 0.104,1.495 -0.673,2.96 -1.932,3.646 -1.149,0.625 -2.479,0.498 -3.658,-0.352 -0.926,-0.466 -1.544,-1.362 -1.743,-2.576 -0.26,-1.584 0.279,-3.281 1.225,-4.031 -0.98,-4.059 -2.567,-6.654 -4.714,-7.797 0.144,3.088 -2.111,4.693 -3.327,5.466 3.098,1.3 3.193,4.744 3.246,6.67 0.013,0.46 0.025,0.894 0.078,1.092 C 9.094,-2.78 9.011,-2.56 8.831,-2.441 8.651,-2.323 8.415,-2.333 8.247,-2.466 7.986,-2.669 7.345,-2.606 6.665,-2.54 5.646,-2.44 4.34,-2.312 3.144,-2.945 3.052,-1.961 2.409,-1.021 1.206,-0.125 1.067,-0.021 0.887,0.471 0.801,0.708 0.646,1.132 0.511,1.499 0.102,1.505 c -10e-4,0 -0.003,0 -0.005,0 -0.167,0 -0.362,-0.129 -0.47,-0.279 v 0 c -2.4,-3.307 -3.235,-7.405 -2.55,-12.526 0.634,-4.73 4.143,-7.492 6.525,-8.553" style="fill:#58698b;fill-opacity:1;fill-rule:nonzero;stroke:none" id="path34"/></g><g id="g36" transform="translate(181.0439,428.3223)"><path d="m 0,0 c 0.35,0.229 0.763,0.367 1.208,0.367 1.24,0 2.25,-1.033 2.25,-2.303 0,-1.269 -1.01,-2.302 -2.25,-2.302 -1.2,0 -2.177,0.97 -2.238,2.184 0.035,0.836 0.429,1.57 1.03,2.054 m 5.333,-2.174 c 0,2.079 -1.654,3.771 -3.687,3.771 -0.833,0 -1.591,-0.294 -2.209,-0.77 -0.888,-0.591 -1.479,-1.606 -1.479,-2.763 0,-0.04 0.011,-0.078 0.012,-0.118 -0.001,-0.041 -0.012,-0.079 -0.012,-0.12 0,-2.079 1.654,-3.771 3.688,-3.771 2.033,0 3.687,1.692 3.687,3.771" style="fill:#58698b;fill-opacity:1;fill-rule:nonzero;stroke:none" id="path38"/></g><g id="g40" transform="translate(180.8838,202.3018)"><path d="m 0,0 c -2.017,0 -3.909,1.671 -4.464,2.986 2.076,0.746 4.152,3.195 5.096,4.426 0.48,-1 1.472,-2.772 3.173,-4.593 C 2.823,0.973 1.513,0 0,0 M 1.213,8.579 C 1.148,8.755 0.991,8.881 0.806,8.904 0.625,8.92 0.437,8.845 0.331,8.691 0.301,8.647 -2.673,4.35 -5.194,3.814 -5.461,3.758 -5.634,3.498 -5.582,3.23 -5.211,1.314 -2.639,-1 -0.001,-1 H 0 c 1.397,0 3.977,0.597 5.462,3.646 0.093,0.19 0.057,0.417 -0.09,0.567 -2.554,2.633 -4.149,5.34 -4.159,5.366" style="fill:#58698b;fill-opacity:1;fill-rule:nonzero;stroke:none" id="path42"/></g><g id="g44" transform="translate(259.0957,294.5039)"><path d="m 0,0 c -3.279,0.52 -5.947,3.261 -6.343,6.517 -0.03,0.253 -0.245,0.44 -0.495,0.44 -0.015,0 -0.029,-10e-4 -0.044,-0.002 -6.647,-0.574 -9.285,3.352 -10.097,5.017 4.123,-0.275 6.863,0.281 7.933,1.618 0.478,0.598 0.599,1.325 0.351,2.102 -0.464,1.448 -1.62,4.256 -2.312,5.904 3.253,-1.561 6.421,-2.213 8.648,-1.198 3.783,1.727 5.564,5.719 4.332,9.706 -0.041,0.133 -0.136,0.243 -0.261,0.303 -0.126,0.061 -0.27,0.065 -0.4,0.015 -2.661,-1.045 -4.949,-1.165 -6.596,-0.388 -0.88,1.272 -1.587,4.313 -0.775,6.616 0.54,1.534 1.645,2.524 3.282,2.944 2.702,0.694 5.422,0.159 7.458,-1.469 C 6.865,36.38 9.416,32.486 9.167,23.847 7.984,18.831 4.936,14.694 2.747,12.249 0.682,9.94 0.187,7.411 1.423,5.484 2.476,3.839 4.512,3.102 6.794,3.468 5.217,0.814 2.787,-0.441 0,0 m -20.41,-20.235 c -2.78,4.226 -3.501,10.089 -1.794,14.588 2.577,6.794 7.322,11.792 8.442,12.912 1.336,-0.745 3.035,-1.282 5.172,-1.349 -2.903,-2.887 -11.636,-12.219 -10.323,-18.794 1.321,-6.618 5.464,-7.911 8.499,-7.911 0.876,0 1.659,0.108 2.257,0.227 0.21,0.041 0.37,0.212 0.398,0.425 0.028,0.213 -0.084,0.419 -0.276,0.514 -0.892,0.436 -1.572,0.605 -2.81,0.912 -0.391,0.097 -0.851,0.211 -1.391,0.352 -0.296,0.799 -0.408,1.572 -0.328,2.279 l 0.116,-0.01 c 0.035,0.372 0.094,0.711 0.161,1.042 0.207,0.484 0.51,0.923 0.931,1.286 1.52,1.31 3.949,1.332 5.91,0.05 1.829,-1.196 2.54,-3.98 1.689,-6.621 -1.075,-3.336 -4.141,-5.225 -8.143,-5.044 -1.191,0.053 -2.33,0.322 -3.404,0.77 -0.245,0.109 -0.505,0.239 -0.759,0.363 -1.681,0.873 -3.168,2.218 -4.347,4.009 M -56.548,7.594 c -0.362,0.302 -0.746,0.624 -1.171,0.981 -0.002,0.002 -0.005,0.005 -0.008,0.007 -0.252,0.417 -0.63,0.725 -1.103,0.926 -0.965,0.808 -2.009,1.668 -3.099,2.525 h 43.834 c 0.334,-0.781 1.335,-2.728 3.462,-4.223 -0.066,-0.068 -0.131,-0.133 -0.212,-0.216 z m 23.105,-16.776 c -0.205,-0.764 -1.108,-1.123 -2.265,-1.304 0.841,0.759 1.601,1.643 2.138,2.385 0.162,-0.403 0.21,-0.772 0.127,-1.081 m -38.255,-20.269 c -1.078,-0.504 -1.92,-1.512 -2.511,-2.433 -0.059,0.744 -0.103,1.684 -0.135,2.729 0.6,-0.053 1.517,-0.147 2.646,-0.296 m 33.782,6.463 c 2.675,2.438 5.931,3.455 9.175,2.858 3.509,-0.644 6.648,-3.096 8.401,-6.559 3.408,-6.736 2.44,-17.534 -2.207,-24.582 -3.446,-5.227 -9.358,-9.512 -14.379,-10.419 -2.788,-0.502 -5.214,-0.017 -7.219,1.445 -4.217,3.076 -5.055,7.443 -4.492,10.248 0.449,2.238 1.779,3.828 3.556,4.251 0.495,0.118 0.985,0.176 1.463,0.176 1.545,0 2.959,-0.609 4.013,-1.76 1.23,-1.344 1.709,-3.155 1.222,-4.616 -0.267,-0.804 -0.77,-1.321 -1.538,-1.579 -1.732,-0.588 -4.187,0.288 -5.376,1.097 -0.247,0.169 -0.571,0.175 -0.822,0.014 -0.252,-0.159 -0.387,-0.453 -0.341,-0.748 0.217,-1.414 2.44,-6.23 7.054,-5.709 2.451,0.284 4.262,1.19 5.385,2.693 2.03,2.718 1.333,6.71 0.873,9.353 -0.149,0.851 -0.333,1.911 -0.288,2.102 0.093,0.162 0.233,0.354 0.376,0.354 h 0.004 c 0.775,-0.019 2.374,-2.163 3.383,-4.153 0.087,-0.171 0.236,-0.303 0.417,-0.368 l 1.167,-0.417 c 0.235,-0.084 0.495,-0.047 0.694,0.101 0.201,0.146 0.316,0.383 0.308,0.631 -0.068,2.029 -0.147,7.636 0.302,9.181 0.014,0.05 0.045,0.137 0.085,0.153 0.525,0.213 2.354,-0.854 3.338,-1.425 0.61,-0.354 1.185,-0.688 1.704,-0.934 0.208,-0.097 0.45,-0.095 0.654,0.006 0.206,0.103 0.354,0.293 0.401,0.519 0.835,3.989 0.181,7.338 -1.944,9.954 -2.34,2.881 -5.769,3.916 -6.953,4.012 -0.324,0.265 -0.598,0.464 -0.774,0.587 -0.339,0.917 -0.412,1.901 -0.115,2.327 0.168,0.24 0.531,0.303 1.067,0.194 l 0.302,1.468 c -1.553,0.321 -2.293,-0.366 -2.598,-0.803 -0.864,-1.238 -0.4,-3.41 0.517,-4.885 1.83,-2.404 2.614,-4.615 2.098,-5.914 -0.305,-0.767 -1.103,-1.264 -2.284,-1.467 -3.809,-0.172 -6.347,2.516 -7.446,5.081 -1.244,2.902 -0.917,5.865 0.817,7.533 m 1.797,-17.341 4.678,2.971 c 0.202,-0.016 0.403,-0.03 0.599,-0.03 0.914,0 1.76,0.176 2.482,0.524 -2.936,-3.409 -6.726,-7.516 -9.699,-9.998 -0.138,0.186 -0.281,0.372 -0.44,0.546 -0.6,0.655 -1.294,1.161 -2.048,1.534 1.271,1.094 3.106,2.783 4.428,4.453 m 9.877,5.98 c 0.129,0.472 0.184,0.984 0.154,1.527 -0.074,1.365 -0.652,2.568 -1.363,3.558 1.058,-0.473 2.295,-1.235 3.35,-2.373 -0.399,-0.552 -1.153,-1.511 -2.141,-2.712 m 3.104,1.49 c 1.215,-1.902 1.633,-4.221 1.242,-6.92 -0.229,0.13 -0.468,0.268 -0.713,0.411 -1.749,1.014 -3.406,1.971 -4.601,1.531 1.779,2.064 3.253,3.882 4.072,4.978 M -34.35,-53.236 c -0.161,-0.749 -0.429,-1.451 -0.873,-2.044 -0.438,-0.587 -1.012,-1.052 -1.733,-1.4 z m -0.276,6.153 c 0.174,-1 0.377,-2.214 0.443,-3.448 l -5.159,-6.815 c -0.08,-0.01 -0.155,-0.025 -0.237,-0.035 -2.334,-0.276 -3.854,1.38 -4.669,2.761 1.55,-0.57 3.373,-0.812 4.808,-0.327 1.208,0.408 2.066,1.282 2.481,2.526 0.444,1.334 0.299,2.859 -0.329,4.248 0.777,0.64 1.61,1.388 2.478,2.218 0.05,-0.341 0.111,-0.709 0.184,-1.128 m 6.005,-0.218 c -0.663,1.218 -1.98,3.358 -3.406,4.138 1.299,1.361 2.592,2.784 3.793,4.149 -0.453,-1.622 -0.432,-6.017 -0.387,-8.287 m -29.128,-4.301 c -1.231,0.033 -2.445,-0.077 -3.639,-0.337 4.212,4.348 10.569,11.529 14.318,16.023 2.588,3.222 6.017,4.993 6.994,4.726 0.293,-0.669 0.673,-1.341 1.134,-1.981 -3.776,-4.405 -14.107,-15.472 -18.807,-18.431 m 6.765,-5.21 c 1.843,-2.282 2.704,-5.058 2.301,-7.426 -0.332,-1.95 -1.155,-3.279 -2.448,-3.948 -1.566,-0.81 -3.486,-0.447 -4.758,0.164 -1.564,0.751 -2.557,2.784 -2.243,3.859 0.054,0.185 0.224,0.743 1.418,0.606 1.269,-0.16 2.302,0.073 3.057,0.679 1.251,1.004 1.421,2.764 1.545,4.049 0.018,0.19 0.036,0.372 0.056,0.542 l -1.49,0.178 c -0.021,-0.18 -0.04,-0.373 -0.059,-0.576 -0.104,-1.076 -0.234,-2.416 -0.992,-3.024 -0.126,-0.101 -0.274,-0.177 -0.434,-0.238 -0.635,2.046 -1.751,3.347 -3.325,3.859 -2.739,0.894 -6.005,-0.964 -7.334,-1.843 -0.163,0.03 -0.297,0.055 -0.401,0.077 l -0.083,-0.411 c -0.02,-0.015 -0.022,-0.017 -0.039,-0.029 -1.188,0.466 -2.607,0.849 -4.124,1.14 3.94,4.211 8.237,6.249 12.78,6.051 2.322,-0.101 4.778,-1.488 6.573,-3.709 m 45.27,-10.899 c -2.361,-4.996 -6.169,-6.512 -12.286,-4.897 -0.066,2.569 -0.753,5.19 -2.141,6.602 -0.186,0.19 -0.458,0.259 -0.713,0.198 -0.438,0.466 -1.062,1.271 -1.491,2.451 -0.04,0.109 -0.052,0.177 -0.065,0.197 0.334,0.209 1.765,0.214 2.924,0.219 1.619,0.006 3.634,0.014 5.955,0.334 4.389,0.603 7.847,3.106 9.586,4.616 0.056,-3.067 -0.336,-6.688 -1.769,-9.72 m -14.954,-10.162 c -1.555,-1.788 -6.483,-4.191 -14.007,-0.485 -0.615,0.302 -1.251,0.625 -1.91,0.958 -7.285,3.687 -17.144,8.667 -31.075,4.913 0.146,0.211 0.295,0.427 0.436,0.632 2.391,3.454 4.119,5.95 4.415,8.157 0.003,0.024 10e-4,0.056 0.003,0.082 l 3.24,-0.113 c -0.002,-0.004 -0.004,-0.008 -0.005,-0.012 -0.561,-1.917 0.884,-4.602 3.032,-5.633 1.089,-0.523 2.235,-0.786 3.332,-0.786 0.988,0 1.936,0.214 2.766,0.642 0.968,0.501 2.15,1.519 2.839,3.506 4.235,-0.868 12.689,-3.117 18.68,-5.789 2.421,-1.073 4.221,-1.245 5.657,-0.538 1.487,0.73 2.319,2.327 2.875,4.047 1.328,-2.838 1.148,-7.94 -0.278,-9.581 m -39.373,-1.466 c 0.28,-1.601 -0.112,-3.931 -1.623,-5.52 -1.354,-1.425 -3.303,-1.994 -5.797,-1.691 -4.6,0.562 -7.826,3.531 -9.861,9.067 0.412,1.672 0.547,3.11 0.587,3.944 1.172,-0.015 2.247,-0.099 3.184,-0.213 -0.28,-2.737 0.61,-5.156 2.574,-6.868 1.663,-1.447 3.677,-2.081 5.214,-2.081 0.482,0 0.916,0.062 1.278,0.18 l -0.467,1.426 c -0.651,-0.215 -1.896,-0.103 -3.178,0.45 -0.431,2.197 -0.169,3.816 0.777,4.68 0.8,0.731 2.123,0.897 3.535,0.444 1.585,-0.509 3.369,-1.895 3.777,-3.818 m -25.831,-6.506 c -2.862,-0.817 -5.93,-0.237 -8.204,1.557 -2.62,2.066 -1.897,4.604 -1.464,5.6 0.913,2.102 2.977,3.534 4.708,3.278 2.882,-0.443 3.058,-2.533 3.212,-4.378 0.026,-0.311 0.053,-0.596 0.089,-0.853 -1.125,-0.435 -2.255,-0.489 -3.052,-0.342 l -0.271,-1.475 c 0.333,-0.062 0.713,-0.097 1.123,-0.097 1.456,0 3.293,0.444 4.817,1.737 1.255,1.065 2.707,3.116 2.806,6.811 1.255,0.236 2.546,0.375 3.866,0.428 -0.073,-1.273 -0.374,-3.942 -1.599,-6.627 -0.994,-2.77 -3.192,-4.824 -6.031,-5.639 m -33.728,7.642 c -0.585,-0.289 -1.15,-0.568 -1.696,-0.832 -7.668,-3.711 -12.691,-1.304 -14.277,0.488 -1.456,1.646 -1.635,6.776 -0.268,9.606 0.563,-1.721 1.403,-3.326 2.905,-4.065 1.462,-0.722 3.294,-0.553 5.768,0.526 6.1,2.671 14.722,4.925 19.028,5.792 0.694,-1.968 1.877,-2.985 2.846,-3.488 0.853,-0.442 1.829,-0.663 2.85,-0.663 1.111,0 2.274,0.262 3.38,0.783 2.168,1.024 3.64,3.7 3.089,5.615 -0.003,0.011 -0.009,0.021 -0.012,0.033 l 4.115,0.14 c 0.212,-1.893 1.652,-4.471 4.331,-8.691 -14.188,3.569 -24.865,-1.693 -32.059,-5.244 m -31.193,9.818 c -1.462,3.04 -1.859,6.671 -1.805,9.739 1.757,-1.506 5.287,-4.034 9.779,-4.641 2.358,-0.318 4.408,-0.327 6.054,-0.333 1.226,-0.005 2.751,-0.011 2.984,-0.172 0.001,-10e-4 0.007,-0.069 -0.057,-0.241 -0.438,-1.184 -1.077,-1.99 -1.524,-2.454 -0.258,0.066 -0.533,-0.004 -0.721,-0.193 -1.412,-1.413 -2.11,-4.034 -2.179,-6.604 -6.245,-1.622 -10.125,-0.105 -12.531,4.899 m 39.382,7.281 c -2.005,-1.462 -4.434,-1.947 -7.222,-1.446 -5.019,0.908 -10.931,5.193 -14.376,10.419 -4.646,7.049 -5.615,17.847 -2.207,24.582 1.753,3.463 4.893,5.915 8.401,6.559 0.606,0.112 1.212,0.167 1.816,0.167 2.623,0 5.182,-1.04 7.345,-3.011 1.749,-1.683 2.075,-4.645 0.831,-7.548 -0.891,-2.08 -2.698,-4.253 -5.358,-4.902 l -0.009,0.027 c -0.078,-0.029 -0.154,-0.049 -0.231,-0.075 -0.553,-0.113 -1.137,-0.168 -1.759,-0.138 -1.27,0.211 -2.069,0.708 -2.374,1.476 -0.514,1.299 0.27,3.51 2.139,5.972 0.877,1.415 1.342,3.587 0.477,4.825 -0.305,0.438 -1.053,1.127 -2.598,0.804 l 0.303,-1.468 c 0.539,0.11 0.898,0.045 1.065,-0.194 0.299,-0.429 0.223,-1.424 -0.103,-2.321 -0.177,-0.121 -0.454,-0.322 -0.785,-0.593 -1.184,-0.096 -4.614,-1.131 -6.954,-4.011 -2.125,-2.617 -2.778,-5.966 -1.943,-9.956 0.048,-0.225 0.195,-0.416 0.401,-0.518 0.205,-0.103 0.448,-0.105 0.655,-0.006 0.518,0.246 1.093,0.58 1.704,0.934 0.983,0.571 2.824,1.634 3.337,1.424 0.04,-0.015 0.07,-0.102 0.085,-0.152 0.45,-1.546 0.371,-7.151 0.302,-9.181 -0.008,-0.248 0.108,-0.484 0.308,-0.63 0.2,-0.149 0.462,-0.185 0.694,-0.101 l 1.166,0.416 c 0.181,0.064 0.33,0.196 0.417,0.367 1.01,1.99 2.61,4.135 3.384,4.154 0.096,0 0.245,-0.116 0.347,-0.287 0.107,-0.276 -0.042,-1.409 -0.161,-2.319 -0.232,-1.758 -0.559,-4.283 -0.038,-6.534 0.008,-0.063 0.016,-0.126 0.025,-0.187 l 0.025,0.004 c 0.536,-2.106 1.845,-3.946 4.743,-4.637 0.051,-0.012 0.103,-0.019 0.155,-0.021 3.597,-0.061 6.613,2.721 6.842,4.221 0.045,0.295 -0.088,0.589 -0.34,0.748 -0.254,0.16 -0.577,0.152 -0.823,-0.015 -1.148,-0.782 -2.51,-1.049 -3.556,-0.694 -0.881,0.297 -1.518,1.018 -1.892,2.143 -0.488,1.461 -0.008,3.274 1.222,4.618 1.379,1.505 3.375,2.084 5.475,1.584 1.778,-0.423 3.107,-2.013 3.556,-4.252 0.564,-2.805 -0.274,-7.171 -4.491,-10.247 m -9.406,16.266 c -0.068,0.118 -0.138,0.224 -0.209,0.319 2.611,2.826 10.956,11.987 10.781,13.481 -0.006,0.05 -0.039,0.102 -0.058,0.154 2.25,-0.247 4.874,-0.66 6.972,-1.249 -2.931,-1.516 -6.987,-5.53 -11.702,-10.398 -1.358,-1.402 -2.53,-2.613 -3.358,-3.378 -1.116,-1.033 -1.931,-1.993 -2.532,-2.888 0.03,0.255 0.062,0.51 0.096,0.767 0.197,1.502 0.327,2.494 0.01,3.192 m -7.954,8.452 c 0.239,-0.35 0.53,-0.664 0.884,-0.925 0.712,-0.524 1.614,-0.816 2.611,-0.899 l -2.014,-1.794 c -0.014,0.057 -0.027,0.119 -0.042,0.17 -0.201,0.69 -0.637,0.993 -0.967,1.125 -0.853,0.341 -1.95,-0.057 -3.15,-0.683 z m -3.075,3.459 c 1.126,1.387 2.551,2.272 3.742,2.803 -0.711,-0.989 -1.29,-2.193 -1.364,-3.559 -0.022,-0.402 0.003,-0.786 0.069,-1.15 l -4.356,-4.892 c -0.211,2.686 0.424,4.969 1.909,6.798 m 4.803,-8.865 4.198,3.739 -0.03,0.033 c 0.306,0.072 0.612,0.159 0.922,0.263 3.25,0.746 5.452,3.319 6.509,5.784 0.056,0.133 0.091,0.267 0.142,0.4 0.754,0.416 2.44,0.337 3.361,0.093 -1.273,-2.082 -7.582,-9.206 -10.398,-12.25 -0.069,0.004 -0.136,0.004 -0.199,10e-4 -1.779,-0.044 -3.581,-2.934 -4.397,-4.43 0.033,1.632 0.051,4.358 -0.108,6.367 m 27.416,7.141 c -0.954,-1.029 -8.323,-8.876 -12.196,-10.288 -2.007,0.036 -3.857,-0.733 -5.235,-2.238 -1.591,-1.739 -2.195,-4.136 -1.539,-6.104 0.662,-1.987 1.908,-2.777 2.836,-3.09 0.626,-0.213 1.323,-0.273 2.032,-0.197 -0.908,-0.619 -2.123,-1.144 -3.498,-1.144 h -0.06 c -2.09,0.523 -3.119,1.766 -3.563,3.417 -0.262,1.774 -0.043,4.026 3.479,7.284 0.857,0.794 2.043,2.019 3.416,3.437 3.301,3.409 10.847,11.181 12.91,10.609 0.587,-0.29 1.039,-0.605 1.292,-0.951 0.182,-0.247 0.215,-0.468 0.126,-0.735 m 5.452,1.067 c 0.7,0.36 1.43,0.733 2.178,1.105 1.643,0.826 2.752,0.693 2.893,0.508 0.013,-0.05 -0.031,-0.347 -0.49,-0.868 -0.907,-1.027 -2.407,-2.308 -4.144,-3.791 -1.772,-1.511 -3.779,-3.224 -5.757,-5.171 -1.003,-0.987 -1.917,-1.897 -2.739,-2.717 -1.739,-1.73 -3.111,-3.096 -3.983,-3.85 -0.728,1.415 -1.832,2.461 -3.191,2.987 4.306,2.669 10.038,8.796 10.882,9.71 1.303,0.524 2.783,1.28 4.351,2.087 m 27.724,2.679 c -0.819,-0.831 -1.582,-2.079 -2.344,-3.417 l -0.004,-0.008 c -0.062,0.024 -0.118,0.06 -0.182,0.082 -1.035,0.344 -2.06,0.288 -2.968,0.24 -0.889,-0.047 -1.377,-0.044 -1.668,0.1 0.522,1.134 1.701,3.085 3.119,3.266 1.124,0.146 2.721,-0.039 4.047,-0.263 m 5.175,-2.991 c -1.775,-1.558 -2.907,-2.869 -3.473,-3.579 -0.49,0.349 -0.949,0.784 -1.42,1.234 -0.424,0.405 -0.856,0.815 -1.325,1.172 l 0.003,0.005 c 0.618,1.085 2.065,3.627 2.959,3.668 1.081,0.04 3.576,-0.525 4.286,-1.81 -0.344,-0.177 -0.689,-0.391 -1.03,-0.69 m 4.74,-1.262 c -0.277,-0.664 -1.242,-2.194 -1.851,-3.126 -0.504,0.106 -1.136,0.1 -1.957,0.072 -0.738,-0.024 -1.575,-0.055 -2.498,0.001 -0.177,0.011 -0.346,0.036 -0.51,0.073 0.584,0.702 1.595,1.824 3.066,3.115 1.194,1.05 2.276,0.834 2.816,0.612 0.625,-0.257 0.912,-0.678 0.934,-0.747 m 0.785,1.386 c -0.02,0.02 -0.038,0.042 -0.06,0.061 0.037,-0.014 0.068,-0.021 0.104,-0.035 -0.016,-0.009 -0.028,-0.018 -0.044,-0.026 M -98.73,-62.024 c 0.48,0.948 1.129,1.548 1.967,1.823 0.374,0.123 0.77,0.176 1.173,0.176 1.199,0 2.473,-0.469 3.496,-0.973 -2.179,-0.348 -5.017,-0.781 -6.636,-1.026 m 0.709,8.243 c 0.296,0.011 0.586,0.015 0.874,0.012 0.098,-0.003 0.198,-0.012 0.297,-0.012 0.018,0 0.036,0.003 0.053,0.003 4.186,-0.118 7.479,-1.768 10.987,-5.517 -1.309,-0.303 -2.585,-0.712 -3.632,-1.259 -0.091,-0.017 -0.18,-0.034 -0.302,-0.056 -1.351,0.878 -4.693,2.744 -7.483,1.836 -1.585,-0.519 -2.71,-1.819 -3.351,-3.853 -0.178,0.064 -0.342,0.144 -0.477,0.252 -0.76,0.612 -0.892,1.942 -0.998,3.011 -0.019,0.203 -0.039,0.397 -0.061,0.579 l -1.489,-0.182 c 0.021,-0.171 0.039,-0.353 0.058,-0.545 0.126,-1.276 0.298,-3.025 1.551,-4.032 0.765,-0.614 1.812,-0.845 3.114,-0.692 1.245,0.147 1.409,-0.431 1.464,-0.619 0.314,-1.096 -0.68,-3.084 -2.289,-3.843 -1.312,-0.619 -3.287,-0.983 -4.897,-0.147 -1.298,0.675 -2.127,1.997 -2.461,3.929 -0.403,2.329 0.446,5.071 2.27,7.334 1.836,2.277 4.368,3.698 6.772,3.801 m 12.624,13.807 c -0.394,-0.836 -0.658,-1.547 -0.656,-2.12 -2.562,-4.062 -7.118,-8.76 -9.14,-9.828 -0.453,-0.238 -1.002,-0.341 -1.55,-0.353 -0.149,0.004 -0.296,0.009 -0.446,0.009 -0.501,0.035 -0.978,0.138 -1.349,0.293 -0.46,0.193 -0.602,0.386 -0.613,0.407 0,0 0.026,0.058 0.114,0.152 3.736,3.489 7.27,7.529 7.33,7.601 1.829,2.179 2.803,3.539 2.855,4.5 0.232,0.074 0.448,0.141 0.699,0.223 2.617,0.849 3.104,0.613 3.164,0.573 0.002,-0.003 0.135,-0.306 -0.408,-1.457 m 5.94,-3.768 c -0.119,-0.656 -0.233,-1.358 -0.322,-2.067 -4.04,-3.281 -6.239,-5.431 -7.375,-6.898 -0.412,-0.224 -2.073,-1.041 -3.693,-0.64 -0.748,0.185 -1.388,0.631 -1.922,1.306 2.43,1.993 5.662,5.607 7.703,8.707 0.729,-0.142 1.779,0.226 3.264,0.75 l 0.555,0.198 c 0.762,0.274 1.72,0.604 1.897,0.589 0.033,-0.052 0.176,-0.388 -0.107,-1.945 m -6.584,-12.479 c -0.236,0.085 -0.472,0.475 -0.715,1.179 -0.02,0.145 0.033,1.519 6.813,7.157 -0.026,-1.141 0.079,-2.212 0.412,-3.051 -0.78,-0.961 -2.99,-3.586 -4.703,-4.634 -1.164,-0.71 -1.636,-0.714 -1.807,-0.651 m 19.636,14.327 c -0.143,0.168 -0.326,0.385 -0.469,0.573 0.541,-0.002 1.066,-0.275 1.805,-0.681 0.448,-0.247 0.927,-0.511 1.465,-0.711 -0.515,-0.424 -1.046,-0.887 -1.59,-1.382 0.007,0.761 -0.61,1.492 -1.211,2.201 m -8.864,-5.863 c 0.274,1.934 0.651,4.516 1.463,5.08 0.093,0.064 0.21,0.114 0.426,0.069 0.806,-0.177 1.477,-0.497 2.079,-0.857 -0.896,-0.921 -2.554,-2.654 -3.968,-4.292 m -1.449,-4.665 c 0.421,0.287 0.692,0.805 0.903,1.572 1.34,1.933 4.591,5.317 5.782,6.536 0.006,-0.005 0.012,-0.009 0.017,-0.013 0.995,-0.721 2.022,-1.462 3.262,-1.241 -5.034,-4.916 -10.458,-11.604 -11.538,-12.95 -0.103,-0.004 -0.215,-0.006 -0.31,-0.012 -0.21,0.013 -0.455,0.021 -0.73,0.021 -0.986,0 -3.032,-0.129 -5.191,-0.519 l 0.279,0.251 c -0.35,0.389 -0.699,0.754 -1.048,1.106 0.526,0.118 1.126,0.386 1.839,0.821 1.759,1.075 3.849,3.467 4.834,4.659 0.253,-0.189 0.545,-0.332 0.889,-0.414 0.104,-0.025 0.208,-0.038 0.309,-0.038 0.249,0 0.488,0.075 0.703,0.221 m -11.762,18.578 v 0 c 2.881,3.119 5.732,4.049 7.242,4.209 -1.602,-1.382 -3.975,-3.8 -5.261,-5.134 -1.555,-0.366 -3.056,-0.769 -4.29,-1.294 0.919,0.811 1.722,1.556 2.309,2.219 m 8.487,3.322 c -0.044,-0.924 -0.109,-1.73 -0.201,-2.339 -0.225,-0.419 -1.968,-0.895 -3.591,-1.281 1.515,1.525 2.958,2.912 3.792,3.62 m -25.278,-22.17 h 0.001 c 0.325,2.235 1.164,3.422 2.433,5.221 l 0.558,0.794 c 0.346,0.345 0.709,0.704 1.102,1.097 0.822,0.817 1.734,1.726 2.735,2.711 1.506,1.483 3.038,2.833 4.468,4.063 -0.107,-0.308 -0.12,-0.627 0.063,-0.926 0.423,-0.698 1.345,-0.671 3.326,-0.112 -0.297,-0.512 -0.934,-1.412 -2.27,-3.005 -1.741,-2.074 -4.538,-4.995 -7.186,-7.447 l -0.002,0.002 c -0.009,-0.009 -0.014,-0.018 -0.022,-0.025 -2.1,-1.942 -4.102,-3.585 -5.408,-4.268 0.124,0.651 0.19,1.287 0.202,1.895 m 37.88,-21.277 0.093,-0.2 c -0.392,-0.174 -0.753,-0.402 -1.066,-0.688 -0.825,-0.754 -1.646,-2.189 -1.416,-4.793 -0.071,0.055 -0.143,0.101 -0.211,0.161 -1.131,0.984 -2.338,2.73 -2.072,5.515 1.465,-0.257 2.348,-0.534 2.365,-0.539 0.153,-0.049 0.313,-0.045 0.459,0.002 l 0.001,-0.002 c 0.625,0.201 1.238,0.378 1.847,0.544 m 2.873,10.962 c 0.084,-0.096 0.144,-0.185 0.181,-0.268 l -0.01,-0.288 h 0.037 c -0.277,-1.841 -1.902,-4.194 -4.147,-7.439 -0.422,-0.61 -0.866,-1.251 -1.327,-1.927 -1.108,0.293 -3.806,0.895 -7.316,0.895 -2.953,0 -5.79,-0.427 -8.441,-1.27 -2.969,4.624 -5.023,8.03 -4.848,9.737 0.22,2.138 6.801,3.558 11.057,3.558 0.238,0 0.451,-0.006 0.717,-0.018 0.474,0.022 0.953,0.033 1.435,0.033 5.999,0 11.391,-1.558 12.662,-3.013 m 1.147,2.687 c 1.399,0.692 3.165,1.257 4.551,0.806 0.816,-0.265 1.467,-0.879 1.945,-1.829 -1.594,0.246 -4.365,0.677 -6.496,1.023 m -0.502,7.61 c -2.864,-1.146 -5.595,-3.17 -8.158,-6.072 l 0.119,-0.105 c -1.477,0.215 -2.992,0.344 -4.438,0.38 2.601,3.175 9.977,11.959 14.794,15.489 2.615,0.142 4.337,2.13 4.337,3.474 0,0.085 -0.03,0.157 -0.045,0.237 0.506,0.767 1.734,2.663 2.113,3.572 0.085,0.203 0.112,0.42 0.095,0.638 1.417,0.786 5.105,2.067 8.779,2.516 -0.48,-0.606 -1.148,-1.42 -1.931,-2.357 -0.01,-0.013 -0.021,-0.026 -0.032,-0.039 -4.001,-4.787 -11.301,-13.1 -15.827,-17.535 z m -14.73,36.305 c 0.394,0.16 0.68,0.236 0.909,0.264 0.247,-0.293 0.558,-0.542 0.946,-0.722 0.278,-0.129 0.59,-0.215 0.921,-0.273 -0.091,-3.061 -0.251,-14.947 0.437,-16.843 0.611,-1.682 2.221,-1.597 3.521,-1.526 0.811,0.043 1.649,0.089 2.413,-0.167 0.799,-0.266 1.504,-0.94 2.25,-1.653 1.113,-1.066 2.375,-2.273 4.276,-2.384 0.993,-0.057 1.905,-0.027 2.637,-0.002 0.552,0.017 1.214,0.041 1.544,-0.009 -0.189,-0.614 -1.243,-1.824 -3.091,-1.824 -0.957,0 -1.709,0.415 -2.505,0.855 -0.952,0.525 -1.936,1.069 -3.2,0.795 -0.644,-0.139 -0.893,-0.501 -0.987,-0.778 -0.249,-0.737 0.321,-1.411 0.982,-2.191 0.262,-0.309 0.725,-0.855 0.833,-1.138 -0.009,-0.004 -0.019,-0.008 -0.03,-0.013 -0.707,-0.284 -1.273,0.093 -2.388,0.902 -0.976,0.708 -2.192,1.589 -3.923,1.968 -0.583,0.127 -1.136,0.024 -1.603,-0.301 -1.364,-0.948 -1.742,-3.618 -2.107,-6.201 -0.17,-1.203 -0.421,-2.981 -0.735,-3.461 -0.665,0.274 -1.475,1.609 -0.477,7.097 0.284,1.568 0.329,2.735 -0.377,3.333 -0.765,0.647 -1.812,0.273 -3.398,-0.298 l -0.547,-0.195 c -0.748,-0.264 -1.722,-0.608 -2.22,-0.685 0.05,0.213 0.175,0.593 0.482,1.241 0.434,0.919 0.924,2.237 0.184,3.079 -0.805,0.914 -2.486,0.611 -4.76,-0.129 -0.885,-0.287 -2.47,-0.802 -3.464,-1.009 0.073,0.078 0.158,0.166 0.256,0.262 1.185,1.17 4.461,1.914 7.093,2.512 3.634,0.825 5.705,1.358 6.003,2.741 0.575,3.738 0.19,13.632 0.052,16.72 0.025,0.012 0.048,0.021 0.073,0.033 m -28.15,12.841 c 0.033,0.014 0.065,0.031 0.095,0.049 0.009,0.006 0.504,0.308 1.384,0.777 -1.151,-1.089 -2.29,-2.286 -3.24,-3.594 -0.509,-0.702 -0.921,-1.307 -1.252,-1.839 -1.603,-1.583 -2.966,-2.287 -3.936,-2.397 -0.399,0.056 -0.762,0.121 -1.074,0.199 -0.014,0.009 -0.032,0.013 -0.044,0.022 -0.597,0.458 -0.633,1.47 -0.116,2.433 1.604,1.397 4.861,2.899 8.183,4.35 M -139.88,7.594 c -0.08,0.083 -0.144,0.147 -0.211,0.214 1.474,1.032 2.4,2.273 2.943,3.206 h 49.752 c -1.333,-1.038 -2.875,-2.217 -4.479,-3.42 z m 5.566,-27.829 c -1.179,-1.791 -2.666,-3.136 -4.346,-4.009 -0.255,-0.124 -0.513,-0.253 -0.758,-0.362 -1.074,-0.449 -2.215,-0.718 -3.406,-0.771 -4.033,-0.175 -7.068,1.708 -8.143,5.044 -0.85,2.64 -0.14,5.425 1.689,6.621 1.96,1.281 4.39,1.262 5.911,-0.049 0.421,-0.364 0.723,-0.803 0.93,-1.287 0.067,-0.331 0.126,-0.669 0.162,-1.042 l 0.115,0.01 c 0.08,-0.707 -0.031,-1.48 -0.327,-2.279 -0.539,-0.141 -0.999,-0.255 -1.391,-0.352 -1.237,-0.307 -1.919,-0.475 -2.81,-0.912 -0.193,-0.095 -0.304,-0.301 -0.277,-0.514 0.028,-0.213 0.189,-0.384 0.399,-0.425 0.597,-0.119 1.38,-0.227 2.256,-0.227 3.036,0 7.177,1.294 8.498,7.911 1.314,6.577 -7.425,15.912 -10.325,18.796 2.139,0.07 3.839,0.604 5.174,1.346 1.122,-1.119 5.862,-6.11 8.442,-12.911 1.709,-4.499 0.987,-10.362 -1.793,-14.588 M -154.724,0 c -2.789,-0.441 -5.216,0.814 -6.794,3.468 2.283,-0.366 4.318,0.371 5.372,2.016 1.236,1.927 0.741,4.456 -1.325,6.765 -2.189,2.446 -5.238,6.583 -6.421,11.599 -0.249,8.639 2.303,12.532 4.488,14.277 2.036,1.627 4.753,2.165 7.458,1.469 1.636,-0.42 2.74,-1.41 3.281,-2.943 0.811,-2.303 0.104,-5.345 -0.775,-6.618 -1.648,-0.776 -3.937,-0.656 -6.596,0.389 -0.129,0.05 -0.275,0.046 -0.4,-0.015 -0.125,-0.06 -0.219,-0.17 -0.26,-0.303 -1.234,-3.987 0.548,-7.979 4.332,-9.707 2.227,-1.015 5.395,-0.361 8.647,1.199 -0.692,-1.647 -1.848,-4.456 -2.312,-5.904 -0.248,-0.777 -0.127,-1.504 0.351,-2.102 1.071,-1.337 3.809,-1.893 7.934,-1.618 -0.812,-1.665 -3.465,-5.589 -10.098,-5.017 -0.263,0.031 -0.507,-0.171 -0.539,-0.438 -0.395,-3.256 -3.063,-5.997 -6.343,-6.517 m 78.57,71.452 h -2.416 c 0.543,0.969 0.938,1.945 1.207,2.921 0.268,-0.978 0.666,-1.955 1.209,-2.921 m 38.467,-46.571 c 0.092,0.134 0.114,0.304 0.058,0.456 -0.056,0.152 -0.182,0.268 -0.338,0.31 -2.2,0.601 -2.637,1.545 -2.703,2.06 h 4.176 c 0.098,0 0.182,0.035 0.26,0.083 h 0.802 c 0.217,0 0.398,0.14 0.467,0.333 h 14.959 c 0.136,-0.145 0.263,-0.306 0.403,-0.442 1.759,-1.704 3.831,-3.304 5.96,-4.617 l -25.479,0.369 c 0.556,0.328 1.005,0.823 1.435,1.448 m -3.986,2.821 c 0,0.002 -10e-4,0.003 -10e-4,0.005 h 10e-4 z m -4.321,-3.433 c -0.012,0 -0.023,0 -0.034,-10e-4 l -0.369,-0.027 c -1.077,-0.081 -1.748,-0.175 -2.325,0.406 2.2,0.531 3.071,2.483 3.223,3.551 0.02,0.144 -0.022,0.289 -0.117,0.399 -0.095,0.109 -0.234,0.172 -0.378,0.172 h -5.875 v 1.438 h 3.187 c 0.158,0 0.305,0.073 0.4,0.199 0.094,0.125 0.125,0.288 0.081,0.439 -0.058,0.2 -1.449,4.916 -4.629,4.988 -1.073,0 -1.982,-0.416 -2.627,-1.204 -0.624,-0.761 -0.913,-1.763 -0.97,-2.659 -0.802,0.824 -1.338,2.025 -1.403,3.245 -0.062,1.162 0.267,2.847 2.189,4.278 0.695,0.517 1.432,0.779 2.194,0.779 2.775,0 5.88,-3.7 6.078,-9.209 0.01,-0.269 0.23,-0.481 0.5,-0.481 h 1.875 c 0.14,0 0.272,0.058 0.367,0.16 0.095,0.102 0.142,0.239 0.131,0.378 -0.32,4.173 -0.769,7.126 -2.111,9.872 -1.793,3.666 -0.967,7.148 2.509,10.618 0.476,-0.776 2.231,-3.979 1.834,-8.485 -0.302,-3.436 -0.59,-7.397 -0.759,-9.835 -0.104,-0.75 -0.165,-1.516 -0.158,-2.294 v -0.007 c 0,-0.013 -0.001,-0.026 -0.001,-0.039 0.003,-0.273 0.227,-0.493 0.5,-0.493 h 2.063 c 0.268,0 0.489,0.212 0.5,0.48 0.003,0.068 0.276,5.811 3.43,8.13 2.526,0.513 4.368,-0.135 5.318,-1.883 0.855,-1.575 0.803,-3.612 0.442,-4.799 -0.544,2.534 -2.292,3.677 -4.881,2.992 -2.728,-0.724 -3.357,-3.302 -3.309,-4.565 0.011,-0.268 0.231,-0.48 0.5,-0.48 h 1.625 v -1.625 h -5.188 c -0.23,0 -0.431,-0.158 -0.486,-0.383 -0.023,-0.097 -0.503,-2.271 3.077,-3.506 -0.526,-0.307 -1.496,-0.47 -2.186,-0.486 -0.227,-0.006 -0.421,-0.163 -0.475,-0.383 -0.157,-0.652 -0.72,-2.372 -1.537,-3.14 -0.396,0.33 -1.102,1.282 -1.732,3.122 -0.07,0.203 -0.26,0.338 -0.473,0.338 m -56.98,0.945 c 0.093,0.134 0.115,0.304 0.059,0.456 -0.056,0.152 -0.182,0.268 -0.338,0.311 -2.205,0.602 -2.64,1.548 -2.704,2.059 h 4.176 c 0.097,0 0.182,0.035 0.26,0.083 h 0.802 47.879 c 0.064,-0.204 0.246,-0.354 0.471,-0.354 h 5.726 c -0.284,-0.793 -1.051,-2.136 -3.005,-2.251 -0.175,-0.01 -0.331,-0.111 -0.414,-0.266 -0.081,-0.154 -0.076,-0.34 0.014,-0.49 0.349,-0.582 0.711,-0.95 1.095,-1.187 l -54.698,0.792 c 0.238,0.246 0.46,0.531 0.677,0.847 m -3.984,2.818 c -0.001,0.002 -0.002,0.006 -0.003,0.008 h 0.002 c 0,-0.003 0,-0.005 0.001,-0.008 m -28.163,-0.351 c 0.141,0.136 0.267,0.297 0.403,0.442 h 16.96 c 0.034,-0.007 0.066,-0.02 0.102,-0.02 h 5.726 c -0.284,-0.793 -1.051,-2.136 -3.006,-2.251 -0.174,-0.011 -0.331,-0.111 -0.413,-0.266 -0.081,-0.155 -0.076,-0.341 0.014,-0.491 0.132,-0.22 0.266,-0.4 0.401,-0.565 h -23.955 c 1.34,0.977 2.621,2.04 3.768,3.151 m 14.944,6.305 c 0.07,0.115 0.122,0.241 0.206,0.343 0.455,0.554 1.077,0.836 1.924,0.836 h 0.004 c 0.805,-0.019 1.471,-0.527 2.009,-1.179 z m -11.417,-0.544 h 7.966 c 0.475,-1.116 1.26,-2.08 2.218,-2.645 0.168,-0.101 0.382,-0.091 0.544,0.023 0.16,0.114 0.239,0.312 0.2,0.506 -0.094,0.47 -0.069,1.072 0.073,1.66 h 5.241 c 0.299,-0.529 0.532,-1.055 0.681,-1.446 h -2.985 c -0.277,0 -0.5,-0.224 -0.5,-0.5 v -1.917 h -15.721 c 0.046,0.061 0.09,0.126 0.135,0.188 0.117,0.144 0.203,0.254 0.225,0.285 l -0.012,0.009 c 0.775,1.127 1.424,2.421 1.935,3.837 m 1.129,4.773 h 6.898 c -0.407,-0.844 -0.6,-1.762 -0.548,-2.72 0.019,-0.355 0.082,-0.706 0.165,-1.053 h -7.297 c 0.362,1.194 0.619,2.463 0.782,3.773 m 16.124,1 c -1.22,1.487 -2.753,2.39 -4.393,2.39 -0.982,0 -1.92,-0.328 -2.791,-0.977 -0.567,-0.422 -1.037,-0.899 -1.423,-1.413 h -7.412 c 0.135,1.65 0.1,3.355 -0.108,5.071 h 16.676 c 0.107,-1.117 0.437,-2.249 0.999,-3.4 0.265,-0.542 0.487,-1.098 0.686,-1.671 z m 3.519,-7.3 h -0.86 c -0.162,2.416 -0.877,4.61 -1.938,6.3 h 1.824 c 0.502,-1.801 0.771,-3.82 0.974,-6.3 m -1.913,17.294 c -0.692,-1.293 -1.054,-2.598 -1.089,-3.923 h -16.771 c -0.214,1.318 -0.543,2.631 -0.981,3.923 z m 31.366,5.081 c 0.156,-0.915 0.455,-1.84 0.914,-2.779 0.207,-0.425 0.386,-0.86 0.551,-1.302 h -2.419 c -1.164,1.265 -2.574,2.021 -4.073,2.021 -0.982,0 -1.92,-0.328 -2.792,-0.977 -0.619,-0.461 -1.126,-0.986 -1.531,-1.554 v 0.51 h -15.388 c -0.687,1.037 -1.532,2.083 -2.571,3.122 -0.189,0.19 -0.494,0.196 -0.689,0.017 -1.147,-1.042 -2.067,-2.087 -2.771,-3.139 h -19.811 c -0.55,1.406 -1.227,2.78 -2.073,4.081 z m -35.1,4.833 h 35.725 c -0.556,-1.262 -0.802,-2.538 -0.737,-3.833 h -34.988 z m 44.611,-3.833 c 0.019,1.214 -0.3,2.506 -0.929,3.833 h 34.532 V 55.29 Z m 23.323,-10.909 h -12.984 c 0.427,1.077 0.492,2.266 0.142,3.458 -0.09,0.305 -0.207,0.594 -0.341,0.872 h 14.183 c -0.731,-1.424 -1.065,-2.865 -1,-4.33 M -74.541,33.649 c 0.046,0.132 0.089,0.255 0.125,0.369 0.225,-0.028 0.456,-0.061 0.656,-0.061 1.492,0 2.331,0.733 3.124,1.883 0.092,0.133 0.114,0.303 0.058,0.455 -0.056,0.152 -0.182,0.268 -0.338,0.311 -2.2,0.6 -2.638,1.545 -2.703,2.059 h 4.176 c 0.097,0 0.182,0.035 0.259,0.083 h 11.42 c -0.758,-1.064 -1.133,-2.289 -1.064,-3.586 0.027,-0.513 0.13,-1.022 0.288,-1.513 z m -31.213,5.566 c 0.115,0.313 0.229,0.618 0.34,0.913 0.486,1.297 0.901,2.419 1.094,3.377 h 13.306 c 0.479,-0.873 1.149,-1.616 1.942,-2.083 0.169,-0.101 0.383,-0.092 0.544,0.023 0.16,0.114 0.239,0.312 0.2,0.506 -0.088,0.442 -0.078,1.001 0.04,1.554 h 5.332 c 0.27,-0.492 0.483,-0.975 0.623,-1.34 h -2.985 c -0.277,0 -0.5,-0.224 -0.5,-0.5 v -2.437 c 0,-0.047 0.014,-0.088 0.026,-0.131 h -8.883 c -1.308,1.704 -3.513,2.611 -5.716,2.118 -1.466,-0.327 -2.57,-1.14 -3.41,-2.159 v 0.159 z m -1.566,-5.766 c 0.227,1.681 0.697,3.295 1.209,4.766 h 1.697 c -1.469,-2.325 -1.86,-5.273 -1.96,-6.425 h -1.061 c 0.026,0.38 0.065,0.948 0.115,1.659 m 15.868,11.056 h -12.759 c 0.061,1.476 -0.381,3.068 -1.285,4.704 h 14.468 c -0.542,-0.942 -0.808,-1.989 -0.749,-3.089 0.029,-0.549 0.147,-1.093 0.325,-1.615 m 7.846,0 h -4.296 c 0.084,0.154 0.16,0.315 0.269,0.449 0.455,0.554 1.077,0.836 1.924,0.836 h 0.004 c 0.849,-0.019 1.547,-0.581 2.099,-1.285 m -10.109,-7.291 c -0.091,0.308 -0.21,0.601 -0.346,0.883 h 14.175 c -0.421,-0.728 -1.218,-1.533 -2.712,-1.62 -0.174,-0.011 -0.331,-0.111 -0.413,-0.266 -0.081,-0.155 -0.076,-0.341 0.014,-0.491 0.783,-1.305 1.626,-1.573 2.651,-1.573 0.315,0 0.664,0.025 1.059,0.054 0.027,-0.075 0.058,-0.142 0.086,-0.215 h -14.584 c 0.349,1.016 0.396,2.119 0.07,3.228 m 19.093,1.447 c 0,10e-4 -0.001,0.003 -0.001,0.004 h 0.001 z m 9.336,5.72 h -4.879 c 0.377,0.423 0.909,0.788 1.662,0.988 0.426,0.113 0.822,0.171 1.178,0.171 1.01,0 1.644,-0.479 2.039,-1.159 m -8.464,0 h -1.19 c 0.263,1.713 0.769,3.346 1.297,4.828 h 1.824 c -1.072,-1.517 -1.638,-3.366 -1.931,-4.828 m -1.281,-1 h 1.108 c -0.056,-0.387 -0.092,-0.72 -0.113,-0.966 h -1.061 c 0.017,0.247 0.039,0.572 0.066,0.966 m -5.287,-1.359 c 0.009,-0.269 0.23,-0.482 0.5,-0.482 h 1.875 c 0.139,0 0.272,0.058 0.367,0.16 0.095,0.103 0.141,0.239 0.131,0.379 -0.321,4.172 -0.769,7.126 -2.112,9.871 -1.793,3.667 -0.966,7.148 2.51,10.618 0.476,-0.775 2.231,-3.978 1.834,-8.484 -0.303,-3.436 -0.59,-7.398 -0.76,-9.835 -0.103,-0.751 -0.164,-1.516 -0.157,-2.295 v -0.006 c 0,-0.013 -0.001,-0.026 -0.001,-0.039 0.003,-0.274 0.227,-0.494 0.5,-0.494 h 2.063 c 0.268,0 0.489,0.212 0.5,0.481 0.003,0.067 0.276,5.81 3.429,8.13 2.528,0.511 4.368,-0.135 5.319,-1.884 0.855,-1.575 0.802,-3.612 0.442,-4.799 -0.545,2.534 -2.293,3.678 -4.881,2.993 -2.728,-0.724 -3.357,-3.303 -3.309,-4.565 0.01,-0.269 0.231,-0.481 0.5,-0.481 h 1.625 v -1.625 h -5.188 c -0.23,0 -0.432,-0.158 -0.486,-0.382 -0.024,-0.097 -0.503,-2.271 3.077,-3.507 -0.526,-0.306 -1.496,-0.469 -2.187,-0.486 -0.226,-0.006 -0.42,-0.163 -0.474,-0.382 -0.157,-0.652 -0.72,-2.372 -1.537,-3.14 -0.396,0.33 -1.102,1.282 -1.733,3.122 -0.069,0.203 -0.259,0.338 -0.472,0.338 -0.012,0 -0.023,-0.001 -0.035,-0.001 L -79.347,35.2 c -1.077,-0.081 -1.747,-0.175 -2.324,0.405 2.199,0.532 3.07,2.483 3.223,3.552 0.02,0.143 -0.023,0.289 -0.117,0.398 -0.095,0.11 -0.234,0.173 -0.378,0.173 h -5.875 v 1.437 h 3.187 c 0.157,0 0.305,0.074 0.4,0.199 0.094,0.126 0.125,0.288 0.081,0.439 -0.058,0.201 -1.45,4.917 -4.629,4.988 -1.074,0 -1.982,-0.416 -2.627,-1.204 -0.624,-0.761 -0.913,-1.763 -0.97,-2.659 -0.802,0.824 -1.338,2.026 -1.403,3.246 -0.062,1.161 0.267,2.847 2.189,4.278 0.694,0.516 1.432,0.778 2.194,0.778 2.775,0 5.879,-3.7 6.078,-9.208 m 1.834,0.518 h -0.86 c -0.021,0.326 -0.054,0.648 -0.095,0.965 h 0.867 c 0.03,-0.317 0.06,-0.632 0.088,-0.965 m -0.192,1.965 h -0.928 c -0.36,1.808 -1.039,3.421 -1.923,4.704 h 1.961 c 0.423,-1.399 0.692,-2.933 0.89,-4.704 m -23.58,-10.519 c 0.356,0.321 0.807,0.597 1.415,0.758 0.426,0.113 0.822,0.171 1.178,0.171 0.887,0 1.473,-0.379 1.873,-0.929 z m 47.364,-0.337 c 0.07,0.116 0.124,0.243 0.208,0.346 0.455,0.555 1.078,0.837 1.924,0.837 h 0.004 c 0.806,-0.019 1.473,-0.529 2.011,-1.183 z m -0.687,-3.163 c 0.16,0.115 0.239,0.313 0.2,0.506 -0.094,0.47 -0.069,1.071 0.072,1.657 h 5.244 c 0.298,-0.528 0.53,-1.052 0.679,-1.442 h -2.985 c -0.277,0 -0.5,-0.224 -0.5,-0.5 v -1.584 h -47.35 v 2.042 c 0,0.276 -0.223,0.5 -0.5,0.5 h -1.062 -1.602 c 0.039,0.344 0.143,0.83 0.379,1.321 h 5.702 c 0.164,-0.532 0.246,-1.11 0.272,-1.656 0.008,-0.179 0.11,-0.34 0.269,-0.422 0.159,-0.082 0.35,-0.072 0.5,0.024 0.115,0.074 0.213,0.161 0.322,0.24 l 0.003,-0.004 c 0.004,0.004 0.007,0.011 0.01,0.015 0.709,0.517 1.283,1.124 1.688,1.803 h 15.469 c 0.607,-1.246 1.293,-2.087 1.917,-2.295 0.052,-0.018 0.106,-0.026 0.159,-0.026 0.097,0 0.194,0.028 0.277,0.084 0.629,0.419 1.108,1.167 1.46,1.9 h 16.84 c 0.481,-0.917 1.17,-1.7 1.993,-2.186 0.169,-0.1 0.383,-0.091 0.544,0.023 m 6.35,8.611 c -1.19,1.361 -2.657,2.175 -4.218,2.175 -0.982,0 -1.92,-0.329 -2.791,-0.977 -0.234,-0.174 -0.45,-0.357 -0.653,-0.547 h -10.99 v 2.042 c 0,0.276 -0.223,0.5 -0.5,0.5 h -1.062 -1.602 c 0.033,0.29 0.113,0.682 0.276,1.091 h 5.871 c 0.119,-0.467 0.184,-0.958 0.206,-1.426 0.007,-0.179 0.11,-0.34 0.269,-0.422 0.159,-0.082 0.351,-0.072 0.5,0.024 0.115,0.074 0.212,0.161 0.321,0.24 l 0.003,-0.004 c 0.003,0.004 0.006,0.01 0.009,0.013 0.628,0.458 1.145,0.987 1.535,1.575 h 13.627 c 0.154,-0.931 0.455,-1.873 0.922,-2.829 0.232,-0.473 0.428,-0.959 0.608,-1.455 z m 2.551,-5.448 c -0.351,1.696 -0.98,3.216 -1.799,4.448 h 1.906 c 0.388,-1.33 0.643,-2.784 0.833,-4.448 z m 1.143,-2.067 h -0.86 c -0.024,0.361 -0.062,0.717 -0.111,1.067 h 0.874 c 0.033,-0.349 0.067,-0.699 0.097,-1.067 m 22.575,18.129 h -17.753 c -0.701,1.091 -1.584,2.193 -2.678,3.287 -0.189,0.189 -0.494,0.196 -0.689,0.016 -1.206,-1.096 -2.157,-2.195 -2.875,-3.303 h -15.374 c -1.308,1.711 -3.517,2.623 -5.724,2.129 -1.204,-0.269 -2.165,-0.863 -2.935,-1.631 h -2.29 c 0.067,0.183 0.135,0.368 0.202,0.544 0.508,1.355 0.945,2.525 1.125,3.51 0.002,0.009 10e-4,0.018 0.002,0.027 h 51.248 c -0.946,-1.454 -1.682,-2.998 -2.259,-4.579 M -40.754,33.649 h -1.206 c 0.263,1.572 0.726,3.073 1.212,4.448 h 1.769 c -0.948,-1.408 -1.481,-3.075 -1.775,-4.448 m -1.312,-1 h 1.128 c -0.076,-0.483 -0.124,-0.9 -0.149,-1.192 h -1.06 c 0.019,0.294 0.046,0.691 0.081,1.192 m 17.715,6.448 h -5.317 c -1.33,1.485 -3.384,2.243 -5.436,1.785 -1.282,-0.287 -2.286,-0.944 -3.081,-1.785 h -2.202 c 0.088,0.236 0.175,0.472 0.26,0.698 0.508,1.355 0.945,2.525 1.125,3.51 0.005,0.025 0.003,0.051 0.007,0.076 h 14.631 c -0.123,-1.451 -0.109,-2.887 0.013,-4.284 m -4.148,-5.448 c 0.351,1.017 0.397,2.122 0.071,3.232 -0.127,0.432 -0.306,0.837 -0.522,1.216 h 4.704 c 0.202,-1.566 0.559,-3.058 1.044,-4.448 z m -8.473,0 c 0.356,0.323 0.808,0.6 1.418,0.762 0.426,0.112 0.823,0.17 1.178,0.17 0.888,0 1.475,-0.38 1.875,-0.932 z m 15.993,-4.34 c 0.043,-0.062 0.087,-0.125 0.133,-0.186 h -14.086 v 1.709 c 0,0.276 -0.223,0.5 -0.5,0.5 h -1.062 -1.602 c 0.039,0.343 0.143,0.827 0.377,1.317 h 5.705 c 0.163,-0.531 0.245,-1.107 0.271,-1.652 0.008,-0.179 0.11,-0.34 0.269,-0.422 0.16,-0.081 0.35,-0.072 0.5,0.024 0.116,0.074 0.212,0.16 0.322,0.239 l 0.003,-0.003 c 0.003,0.003 0.005,0.009 0.008,0.012 0.709,0.517 1.284,1.124 1.689,1.802 h 6.117 c 0.458,-1.111 1.012,-2.128 1.642,-3.044 l -0.014,-0.009 c 0.022,-0.031 0.109,-0.142 0.228,-0.287 m -3.266,15.072 h -14.659 c 0.01,1.366 -0.417,2.83 -1.219,4.33 h 16.811 c -0.45,-1.428 -0.751,-2.88 -0.933,-4.33 m -38.476,27.071 c 0.54,1.189 0.783,2.479 0.64,3.686 h 7.301 c -0.816,-2.721 -1.993,-3.578 -2.392,-3.799 v 0.113 z m -7.983,9.684 c 0.944,1.369 2.639,2.353 5.062,2.917 3.306,0.768 7.09,-0.229 9.423,-2.484 0.146,-0.141 0.277,-0.287 0.406,-0.433 z m -0.509,-1 h 16.133 c 0.659,-1.108 0.902,-2.308 0.668,-3.499 -0.034,-0.176 -0.073,-0.335 -0.11,-0.499 h -7.775 c -0.446,1.416 -1.373,2.103 -2.144,2.425 -1.749,0.727 -4.06,0.191 -5.283,-0.749 l 0.011,-0.014 c -0.566,-0.394 -1.122,-0.92 -1.63,-1.634 -0.371,1.517 -0.311,2.838 0.13,3.97 m -25.965,-9.684 h 6.625 c 0.659,-0.676 1.483,-1.315 2.497,-1.87 0.017,-0.011 0.034,-0.019 0.05,-0.029 0.018,-0.01 0.035,-0.019 0.054,-0.029 0.772,-0.473 1.604,-0.772 2.391,-0.907 2.623,-0.452 5.088,0.597 6.255,2.642 0.044,0.064 0.077,0.129 0.119,0.193 h 3.649 c 0.035,-0.054 0.062,-0.107 0.099,-0.16 0.781,-1.366 2.119,-2.276 3.685,-2.618 0.918,-0.43 1.853,-0.646 2.773,-0.646 1.29,0 2.552,0.421 3.703,1.254 0.802,0.581 1.484,1.333 2.014,2.17 h 5.717 c 0.412,-0.605 3.526,-4.89 7.932,-3.359 1.541,0.77 2.756,2.098 3.457,2.997 0.311,-1.082 0.976,-2.777 2.309,-4.383 h -67.026 c 1.334,1.606 1.998,3.303 2.31,4.385 0.706,-0.901 1.936,-2.238 3.517,-3.025 4.358,-1.507 7.46,2.78 7.87,3.385 m 4.442,4.686 c 0.001,-0.049 -0.004,-0.095 -0.002,-0.144 0.049,-1.05 0.46,-2.316 1.342,-3.542 h -6.157 V 71.34 c -0.408,0.227 -1.579,1.09 -2.391,3.798 z m -6.177,5.998 c 0.13,0.146 0.261,0.292 0.406,0.433 2.334,2.255 6.119,3.252 9.425,2.484 2.424,-0.564 4.118,-1.548 5.062,-2.917 z m -1.4,-4.499 c -0.234,1.191 0.009,2.391 0.668,3.499 h 16.134 c 0.38,-0.973 0.457,-2.096 0.236,-3.356 -0.447,0.812 -1.132,1.514 -2.005,2.006 -1.606,0.905 -3.533,0.93 -5.287,0.068 -1.122,-0.552 -1.845,-1.513 -2.085,-2.716 h -7.55 c -0.037,0.164 -0.076,0.323 -0.111,0.499 m -11.503,-11.93 h 68.909 c 0.816,-0.768 1.813,-1.478 3.043,-2.039 0.231,-0.105 0.511,-0.018 0.64,0.207 0.392,0.681 0.71,1.45 0.969,2.219 v -4.971 h -35.054 c -0.741,1.267 -1.754,2.556 -3.031,3.833 -0.189,0.19 -0.494,0.196 -0.689,0.017 -1.405,-1.277 -2.474,-2.557 -3.215,-3.85 h -36.225 v 4.97 c 0.259,-0.769 0.577,-1.538 0.969,-2.218 0.129,-0.226 0.411,-0.312 0.641,-0.207 1.229,0.561 2.226,1.27 3.043,2.039 m -1.222,-40.177 c -0.373,0.04 -0.684,0.161 -0.971,0.45 2.199,0.532 3.071,2.483 3.223,3.552 0.02,0.143 -0.023,0.289 -0.117,0.398 -0.095,0.11 -0.234,0.173 -0.378,0.173 h -5.875 v 1.437 h 3.187 c 0.157,0 0.305,0.074 0.4,0.199 0.094,0.126 0.125,0.288 0.081,0.439 -0.058,0.201 -1.45,4.917 -4.629,4.988 -1.073,0 -1.982,-0.416 -2.627,-1.204 -0.624,-0.761 -0.913,-1.763 -0.97,-2.659 -0.802,0.824 -1.337,2.025 -1.402,3.245 -0.063,1.162 0.266,2.847 2.188,4.279 0.695,0.516 1.432,0.778 2.194,0.778 2.775,0 5.88,-3.7 6.078,-9.208 0.01,-0.269 0.23,-0.482 0.5,-0.482 h 1.875 c 0.139,0 0.272,0.058 0.367,0.16 0.095,0.103 0.142,0.239 0.131,0.379 -0.321,4.172 -0.769,7.126 -2.112,9.871 -1.793,3.667 -0.966,7.148 2.51,10.618 0.476,-0.775 2.232,-3.978 1.834,-8.484 -0.303,-3.436 -0.59,-7.398 -0.76,-9.835 -0.103,-0.751 -0.164,-1.516 -0.157,-2.295 v -0.006 c 0,-0.013 -10e-4,-0.026 -10e-4,-0.039 0.003,-0.274 0.227,-0.494 0.5,-0.494 h 2.063 c 0.268,0 0.489,0.212 0.5,0.481 0.003,0.067 0.276,5.81 3.429,8.13 2.529,0.512 4.369,-0.136 5.319,-1.884 0.855,-1.576 0.804,-3.614 0.442,-4.8 -0.543,2.535 -2.293,3.679 -4.881,2.994 -1.177,-0.313 -1.947,-0.977 -2.457,-1.725 h -0.247 v -0.374 c -0.484,-0.887 -0.629,-1.839 -0.605,-2.466 0.01,-0.269 0.231,-0.481 0.5,-0.481 h 1.625 V 29.04 h -5.188 c -0.23,0 -0.431,-0.158 -0.486,-0.382 -0.024,-0.097 -0.503,-2.271 3.077,-3.507 -0.526,-0.306 -1.496,-0.469 -2.186,-0.486 -0.227,-0.006 -0.421,-0.163 -0.475,-0.382 -0.157,-0.652 -0.72,-2.372 -1.537,-3.14 -0.396,0.33 -1.102,1.282 -1.733,3.122 -0.069,0.203 -0.259,0.338 -0.472,0.338 -0.012,0 -0.023,-0.001 -0.034,-0.001 l -0.37,-0.027 c -0.254,-0.019 -0.486,-0.039 -0.7,-0.05 v 0.005 z m 36.734,55.491 c 1.292,3.881 5.141,7.093 10.836,9.046 9.893,3.392 21.536,-5.711 31.623,-15.061 0.093,-0.085 0.214,-0.133 0.34,-0.133 h 6.857 c -1.228,-3.818 -6.535,-4.58 -6.59,-4.587 -0.248,-0.034 -0.434,-0.245 -0.434,-0.496 v -9.583 c 0,-0.277 0.224,-0.5 0.5,-0.5 h 21.376 c -1.058,-1.231 -2.903,-3.917 -4.847,-9.246 -3.007,-8.25 -0.694,-20.018 6.795,-22.826 2.058,-0.771 3.727,-1.073 5.091,-1.073 2.734,0 4.232,1.212 5.157,2.295 -0.033,-0.895 -0.244,-1.997 -0.939,-2.947 -0.962,-1.316 -2.644,-2.057 -4.966,-2.203 -8.441,0 -13.865,6.21 -14.756,7.307 -2.369,3.311 -3.57,8.254 -3.11,13.367 h 0.069 v 0.691 c 0.43,3.606 1.684,7.256 3.953,10.427 0.11,0.152 0.124,0.353 0.038,0.52 -0.085,0.166 -0.256,0.271 -0.444,0.271 h -17.5 v 14.417 c 0,0.266 -0.208,0.485 -0.474,0.499 -0.242,0.009 -0.495,-0.184 -0.523,-0.448 -0.004,-0.036 -0.38,-3.516 -1.619,-5.976 -0.887,0.453 -1.634,0.997 -2.265,1.583 v 0.342 h -0.341 c -2.465,2.52 -2.941,5.611 -2.947,5.652 -0.029,0.209 -0.186,0.377 -0.392,0.42 -0.212,0.042 -0.419,-0.049 -0.529,-0.227 -0.015,-0.025 -1.537,-2.475 -3.657,-3.539 -3.201,-1.106 -5.606,1.52 -6.436,2.607 0.815,0.558 2.264,2.048 3.006,5.823 0.409,2.073 -0.335,4.148 -2.091,5.846 -2.569,2.481 -6.727,3.581 -10.345,2.738 -2.946,-0.686 -4.955,-1.968 -5.973,-3.81 -0.963,-1.744 -1.009,-3.905 -0.137,-6.424 0.066,-0.188 0.235,-0.319 0.432,-0.335 0.197,-0.011 0.386,0.086 0.481,0.261 1.38,2.552 3.28,3.242 4.55,2.801 1.421,-0.497 2.081,-2.254 1.684,-4.475 -0.499,-2.789 -2.653,-4.124 -4.503,-4.443 -2.204,-0.382 -4.26,0.478 -5.258,2.219 -2.097,3.081 -2.689,6.262 -1.712,9.2 m -45.249,-21.314 c 0.277,0 0.5,0.223 0.5,0.5 v 9.583 c 0,0.251 -0.185,0.462 -0.433,0.496 -0.056,0.007 -5.363,0.769 -6.59,4.587 h 6.857 c 0.126,0 0.247,0.048 0.34,0.133 10.088,9.351 21.738,18.453 31.623,15.061 5.695,-1.953 9.544,-5.165 10.836,-9.046 0.978,-2.938 0.386,-6.119 -1.733,-9.233 -0.977,-1.709 -3.036,-2.565 -5.238,-2.186 -0.221,0.038 -0.447,0.093 -0.673,0.161 -0.557,0.212 -1.056,0.459 -1.528,0.721 -1.083,0.72 -1.998,1.869 -2.301,3.561 -0.397,2.221 0.263,3.978 1.684,4.475 1.267,0.441 3.17,-0.249 4.551,-2.801 0.095,-0.175 0.28,-0.272 0.48,-0.261 0.198,0.016 0.366,0.147 0.432,0.335 0.872,2.519 0.826,4.68 -0.137,6.424 -1.017,1.842 -3.026,3.124 -5.972,3.81 -3.62,0.843 -7.779,-0.257 -10.346,-2.738 -1.757,-1.698 -2.5,-3.773 -2.092,-5.846 0.741,-3.77 2.188,-5.261 3.004,-5.821 -0.836,-1.078 -3.267,-3.706 -6.372,-2.635 -2.174,1.087 -3.703,3.54 -3.719,3.565 -0.11,0.179 -0.322,0.271 -0.528,0.227 -0.206,-0.043 -0.363,-0.212 -0.393,-0.421 -0.006,-0.04 -0.48,-3.131 -2.947,-5.651 h -0.054 v -0.056 c -0.689,-0.693 -1.522,-1.343 -2.551,-1.869 -1.238,2.457 -1.615,5.94 -1.619,5.976 -0.026,0.264 -0.249,0.457 -0.523,0.448 -0.266,-0.014 -0.474,-0.233 -0.474,-0.499 V 55.29 h -17.5 c -0.187,0 -0.359,-0.105 -0.444,-0.271 -0.086,-0.167 -0.071,-0.368 0.038,-0.52 5.639,-7.88 5.056,-18.694 0.912,-24.485 -0.891,-1.097 -6.311,-7.307 -14.724,-7.308 -2.35,0.147 -4.03,0.886 -4.993,2.197 -0.695,0.948 -0.907,2.053 -0.941,2.951 0.926,-1.083 2.424,-2.292 5.154,-2.292 1.363,0 3.033,0.302 5.09,1.073 7.49,2.808 9.804,14.576 6.795,22.826 -1.942,5.329 -3.787,8.015 -4.846,9.246 z m 49.381,-40.778 c -0.392,0.09 -0.78,0.162 -1.152,0.192 -1.521,0.122 -2.771,0.041 -3.856,-0.192 h -66.956 c 0.719,1.817 1.56,3.8 1.81,4.386 0.673,0.372 1.343,0.782 2.005,1.215 h 27.415 c 0.074,-0.003 0.146,-0.008 0.222,-0.008 0.08,0 0.17,0.005 0.254,0.008 h 0.045 v 0.002 c 0.236,0.009 0.484,0.024 0.76,0.044 0.707,-1.909 1.625,-3.24 2.436,-3.51 0.051,-0.018 0.105,-0.026 0.158,-0.026 0.097,0 0.194,0.028 0.277,0.084 1.059,0.706 1.703,2.335 1.999,3.266 0.507,-0.062 0.965,-0.071 1.355,0.002 l 59.347,-0.859 c 0.658,-1.525 1.445,-2.566 2.151,-2.801 0.051,-0.017 0.105,-0.025 0.158,-0.025 0.098,0 0.194,0.028 0.277,0.084 0.966,0.644 1.585,2.056 1.912,3.006 l -0.005,-0.329 29.279,-0.424 c 0.334,-0.789 1.059,-2.514 1.692,-4.115 z M -58.919,7.615 c 0.146,-0.422 0.07,-1.026 -0.181,-1.624 -0.445,-0.483 -0.951,-1.022 -1.516,-1.614 -0.8,-0.763 -1.434,-1.471 -1.567,-1.622 l 0.003,-0.003 c -6.052,-6.234 -15.675,-15.638 -17.192,-16.824 -1.859,-1.846 -4.754,-2.492 -5.514,-1.907 -0.324,0.25 -0.177,1.004 0.365,1.975 1.144,1.056 2.286,2.252 3.377,3.396 0.477,0.5 0.94,0.985 1.381,1.436 3.197,3.259 11.831,11.445 16.768,16.114 0.114,0.05 0.221,0.109 0.31,0.159 1.528,0.855 2.567,1.207 3.109,1.076 0.222,-0.186 0.435,-0.365 0.645,-0.542 0.003,-0.008 0.009,-0.012 0.012,-0.02 m -40.288,-20.932 c -0.005,-0.036 -0.008,-0.07 -0.011,-0.104 -0.049,0.017 -0.096,0.034 -0.144,0.052 0.051,0.016 0.103,0.033 0.155,0.052 m -0.997,1.293 c -0.824,-0.056 -1.398,0.237 -1.639,0.84 -0.304,0.767 -0.005,1.816 0.683,2.388 l -0.005,0.006 c 3.649,3.135 8.481,7.847 13.78,13.082 2.842,2.807 5.296,5.231 6.662,6.436 1.035,0.911 1.819,1.677 2.401,2.335 2.4,2.339 4.691,3.331 5.947,3.373 0.23,-0.057 0.464,-0.119 0.705,-0.198 -0.643,-2.104 -11.143,-13.141 -16.149,-17.243 -1.708,-1.4 -3.524,-3.294 -5.279,-5.125 -2.602,-2.716 -5.552,-5.795 -7.106,-5.894 m 37.229,22.152 c 0.032,-0.659 -0.295,-1.379 -0.872,-1.927 -4.911,-4.643 -13.732,-13.005 -16.986,-16.324 -0.446,-0.455 -0.914,-0.944 -1.396,-1.45 -2.59,-2.715 -6.139,-6.437 -8.162,-6.134 -0.466,0.069 -0.854,0.397 -1.184,0.97 3.088,2.446 7.59,7.342 13.113,13.693 0.655,0.752 1.188,1.364 1.552,1.771 1.153,1.287 3.146,3.379 5.258,5.594 0.82,0.86 1.642,1.724 2.427,2.553 0.251,0.189 0.515,0.397 0.791,0.616 1.529,1.208 3.62,2.857 4.624,2.096 0.009,-0.006 0.018,-0.013 0.027,-0.02 0.51,-0.403 0.782,-0.887 0.808,-1.438 m -73.604,2.718 c -0.104,0.13 -0.263,0.198 -0.434,0.185 -5.842,-0.521 -7.461,0.656 -7.883,1.184 -0.267,0.333 -0.327,0.717 -0.18,1.173 0.152,0.475 0.387,1.114 0.656,1.814 v -0.273 h 64.593 c -1.216,-0.68 -2.276,-1.584 -3.454,-2.591 l -0.754,-0.641 c -0.486,-0.408 -1.217,-0.997 -2.085,-1.683 h -50.517 c 0.094,0.219 0.142,0.358 0.145,0.368 0.051,0.16 0.018,0.333 -0.087,0.464 m 27.28,-23.712 c -0.075,0.231 0.084,1.013 2,3.653 1.65,2.274 3.977,4.262 5.846,5.86 0.671,0.573 1.275,1.091 1.77,1.554 4.794,3.093 13.911,10.072 16.615,12.349 l 0.761,0.648 c 1.356,1.157 2.464,2.086 3.776,2.697 0.009,-0.011 0.014,-0.021 0.023,-0.032 0.248,-0.309 -0.255,-1.046 -0.963,-1.834 -0.295,-0.291 -0.589,-0.589 -0.881,-0.913 -0.502,-0.494 -1.005,-0.948 -1.363,-1.263 -1.398,-1.233 -3.866,-3.671 -6.723,-6.494 -6.041,-5.968 -16.107,-15.909 -18.684,-16.555 -0.67,0.085 -1.332,0.153 -1.973,0.21 -0.116,0.045 -0.195,0.092 -0.204,0.12 m 11.666,-3.13 c -0.166,0.346 -0.268,1.001 1.582,2.808 1.245,1.109 2.596,2.517 4.036,4.02 1.725,1.799 3.508,3.66 5.147,5.003 1.575,1.29 8.503,7.803 12.928,12.904 l 0.002,-0.003 c 1.507,1.289 5.031,4.313 6.005,3.694 0.042,-0.027 0.084,-0.062 0.109,-0.179 0.135,-0.654 -0.555,-2.058 -1.103,-2.876 -1.143,-1.22 -2.487,-2.63 -3.811,-4.02 -2.119,-2.223 -4.121,-4.323 -5.289,-5.627 -0.369,-0.411 -0.906,-1.028 -1.567,-1.788 -8.546,-9.826 -13.659,-14.832 -15.211,-14.895 -0.955,0.298 -1.896,0.623 -2.828,0.959 m 24.176,-1.483 c -1.608,0.024 -2.297,0.31 -2.827,0.542 -0.154,0.067 -0.31,0.13 -0.476,0.183 -0.054,0.222 -0.065,0.501 0.022,0.873 l -0.135,0.032 c 3.65,3.396 12.31,11.93 17.231,17.081 0.853,0.817 1.779,1.589 2.354,1.786 0.495,0.17 1.642,-0.154 2.122,-0.874 0.12,-0.181 0.483,-0.729 -0.337,-1.668 -1.903,-2.177 -4.41,-4.959 -6.706,-7.506 -2.495,-2.769 -4.649,-5.159 -5.425,-6.108 -1.826,-2.462 -4.03,-3.83 -5.823,-4.341 m 23.869,1.312 c -0.639,-0.222 -1.296,-0.423 -1.974,-0.606 -0.984,-0.082 -1.796,0.142 -2.194,0.374 1.053,0.965 2.018,2.059 2.865,3.087 l 0.358,0.432 c 1.042,1.263 2.525,3.06 3.958,4.842 1.013,1.092 1.983,2.021 2.723,2.621 0.953,0.772 2.179,0.979 3.28,0.554 0.747,-0.288 1.266,-0.829 1.475,-1.47 -0.696,-0.783 -1.582,-1.728 -2.557,-2.728 -0.027,-0.026 -0.057,-0.055 -0.079,-0.078 l 10e-4,-0.002 c -2.815,-2.88 -6.293,-6.137 -7.856,-7.026 m 14.077,8.454 c 0.488,-0.688 -1.018,-2.964 -2.825,-4.821 -0.2,-0.088 -0.387,-0.143 -0.555,-0.155 -0.013,-10e-4 -0.028,-10e-4 -0.043,-10e-4 l -0.889,-0.02 c -0.191,-0.006 -0.387,-0.023 -0.586,-0.05 -0.789,-0.006 -1.605,0.059 -1.788,0.348 -0.053,0.084 -0.05,0.38 0.257,0.944 0.43,0.429 0.857,0.857 1.267,1.277 l 0.004,-0.005 c 1.412,1.422 3.367,2.85 4.515,2.801 0.128,-0.003 0.236,-0.028 0.335,-0.07 0.104,-0.083 0.211,-0.166 0.308,-0.248 m -10.633,5.396 c 0.443,-0.272 0.684,-0.592 0.733,-0.979 0.046,-0.362 -0.066,-0.765 -0.241,-1.154 -0.63,-0.817 -1.341,-1.714 -2.067,-2.617 -1.116,-1.206 -2.275,-2.598 -3.256,-3.99 -0.254,-0.308 -0.496,-0.602 -0.715,-0.868 l -0.357,-0.433 c -1.863,-2.258 -4.303,-4.864 -6.82,-5.312 -0.366,-0.006 -0.742,-0.01 -1.134,-0.01 -0.192,0 -0.387,0.008 -0.58,0.009 -0.223,0.06 -0.377,0.141 -0.438,0.233 -0.153,0.235 -0.085,0.885 0.531,1.986 2.201,2.3 5.432,5.759 8.227,8.814 2.482,2.716 5.281,4.68 6.073,4.342 0.015,-0.007 0.03,-0.015 0.044,-0.021 m -4.684,2.392 0.027,-0.026 c 0.985,-0.912 1.097,-1.029 0.275,-2.538 -0.837,-0.937 -1.813,-2.011 -2.852,-3.146 -0.004,-0.005 -0.011,-0.012 -0.016,-0.017 -4.37,-4.774 -9.821,-10.558 -10.595,-11.206 -0.404,-0.39 -1.119,-0.619 -1.841,-0.679 -0.33,0.012 -0.651,0.023 -0.975,0.034 -0.42,0.067 -0.79,0.198 -1.021,0.417 -0.568,0.536 0.196,1.599 0.701,2.185 l -0.011,0.009 c 0.232,0.27 0.465,0.536 0.685,0.832 0.73,0.893 2.875,3.271 5.356,6.025 1.479,1.641 3.044,3.378 4.486,4.995 1.197,0.929 4.457,3.445 5.505,3.267 0.092,-0.051 0.183,-0.102 0.276,-0.152 m -12.399,10.958 c -2.025,1.522 -4.15,2.941 -6.167,3.896 H -10.2 c 0.224,-0.591 0.42,-1.129 0.552,-1.541 0.146,-0.456 0.087,-0.84 -0.179,-1.173 -0.419,-0.523 -2.003,-1.673 -7.694,-1.198 v 0.016 z M 7.598,4.682 C 5.331,3.982 3.235,4.508 2.265,6.023 c -0.98,1.527 -0.52,3.605 1.228,5.559 3.379,3.776 8.748,11.439 6.739,20.318 -0.996,4.402 -3.249,7.776 -6.344,9.5 -2.346,1.306 -4.962,1.567 -7.371,0.737 -2.747,-0.967 -4.769,-3.369 -5.276,-6.268 -0.429,-2.452 0.299,-4.72 1.947,-6.066 1.056,-0.862 2.437,-1.273 4.036,-1.261 -2.169,-1.331 -5.238,-2.081 -9.768,4.045 -2.718,3.675 -3.288,9.843 -1.526,16.5 1.445,5.458 4.228,9.927 6.925,11.121 0.181,0.08 0.298,0.259 0.298,0.457 v 2 c 0,0.276 -0.223,0.5 -0.5,0.5 h -24.169 v 5.342 c 6.486,1.247 8.14,6.936 8.158,6.998 0.041,0.151 0.009,0.312 -0.085,0.436 -0.095,0.124 -0.242,0.197 -0.398,0.197 h -8.619 c -11.447,11.088 -21.4,16.388 -29.583,15.776 -8.683,-0.658 -14.162,-4.722 -15.049,-11.152 -0.054,-0.142 -0.112,-0.283 -0.16,-0.426 -0.046,-0.137 -0.07,-0.276 -0.109,-0.415 -0.04,0.139 -0.065,0.278 -0.111,0.415 -0.048,0.143 -0.106,0.284 -0.16,0.426 -0.887,6.43 -6.366,10.494 -15.049,11.152 -8.183,0.625 -18.135,-4.687 -29.583,-15.776 h -8.619 c -0.156,0 -0.303,-0.073 -0.397,-0.197 -0.095,-0.124 -0.126,-0.285 -0.085,-0.436 0.017,-0.062 1.672,-5.751 8.156,-6.998 v -5.342 h -24.169 c -0.276,0 -0.5,-0.224 -0.5,-0.5 v -2 c 0,-0.198 0.117,-0.377 0.298,-0.457 2.697,-1.194 5.48,-5.662 6.926,-11.119 1.762,-6.657 1.192,-12.826 -1.526,-16.502 -4.528,-6.125 -7.597,-5.376 -9.766,-4.046 1.598,-0.012 2.977,0.399 4.033,1.262 1.648,1.346 2.377,3.614 1.948,6.066 -0.508,2.899 -2.528,5.301 -5.278,6.269 -2.407,0.831 -5.024,0.568 -7.368,-0.739 -3.096,-1.723 -5.349,-5.096 -6.345,-9.499 -2.01,-8.879 3.36,-16.541 6.739,-20.318 1.748,-1.954 2.208,-4.032 1.229,-5.559 -0.973,-1.515 -3.068,-2.041 -5.333,-1.341 -0.192,0.06 -0.395,0 -0.525,-0.149 -0.13,-0.149 -0.16,-0.361 -0.076,-0.54 1.509,-3.246 4.12,-5.078 7.136,-5.078 0.399,0 0.807,0.032 1.219,0.098 3.201,0.507 5.87,2.892 6.836,5.904 1.941,-1.918 8.186,-8.313 9.963,-12.892 1.997,-5.145 -1.335,-8.415 -3.519,-9.914 0.277,1.16 0.201,2.258 -0.204,3.213 -0.717,3.223 -2.866,4.791 -6.265,4.538 -2.105,-0.157 -4.078,-1.778 -5.149,-4.231 -1.224,-2.803 -0.959,-5.831 0.692,-7.902 1.95,-2.449 4.269,-4.539 7.84,-4.539 1.482,0 3.186,0.37 5.164,1.214 0.324,0.129 0.641,0.275 0.952,0.434 0.162,0.079 0.321,0.151 0.486,0.235 l -0.006,0.014 c 1.655,0.952 3.12,2.337 4.298,4.128 2.949,4.481 3.709,10.707 1.894,15.493 -2.067,5.447 -5.403,9.691 -7.366,11.886 h 45.734 c -3.943,-2.924 -7.899,-5.706 -9.389,-6.368 -2.779,-1.235 -4.488,-2.25 -4.794,-2.435 -5.899,-2.578 -10.069,-4.616 -10.069,-7.334 0,-1.198 0.791,-1.828 2.064,-2.199 0.327,-0.178 0.809,-0.356 1.464,-0.356 0.082,0 0.172,0.011 0.259,0.017 0.833,-0.11 1.76,-0.183 2.746,-0.259 1.159,-0.09 2.471,-0.191 3.786,-0.364 2.526,-0.331 5.06,-1.26 7.743,-2.244 2.573,-0.944 5.233,-1.919 8.058,-2.418 2.501,-0.441 4.404,-0.753 6.111,-0.753 h 0.001 c 1.71,0 3.241,0.309 5.087,1.041 0.095,-2.274 0.256,-6.756 0.228,-10.557 -5.225,0.384 -10.584,-2.374 -14.939,-4.615 -1.158,-0.596 -2.269,-1.167 -3.276,-1.625 -0.073,0.292 -0.208,0.575 -0.406,0.845 -0.323,0.441 -0.824,0.836 -1.449,1.188 -0.145,0.102 -0.297,0.186 -0.459,0.242 -4.011,1.962 -12.009,2.502 -14.216,2.487 0.316,2.492 -0.353,4.826 -1.963,6.374 -0.231,0.211 -0.474,0.394 -0.713,0.586 l 0.008,0.007 c -3.131,3.325 -8.763,4.252 -13.39,2.204 -5.748,-2.544 -8.671,-8.768 -8.021,-17.077 l 0.028,0.002 c -0.019,-5.561 1.51,-11.468 4.457,-15.94 3.088,-4.685 9.035,-9.925 15.362,-11.068 0.805,-0.147 1.586,-0.219 2.342,-0.219 2.249,0 4.271,0.644 6.031,1.929 1.125,0.82 2.029,1.726 2.758,2.672 -0.542,-1.269 -0.835,-2.578 -0.873,-3.844 -5.239,-0.12 -10.649,-2.222 -15.032,-3.931 -2.401,-0.936 -4.474,-1.743 -5.812,-1.925 -1.272,-0.174 -2.125,-0.055 -2.468,0.338 -0.489,0.564 -0.164,1.986 0.123,3.008 0.574,2.039 0.467,3.467 -0.326,4.365 -0.696,0.786 -1.846,1.062 -3.43,0.823 -5.218,-0.823 -11.541,1.444 -12.145,2.374 -0.327,3.986 -1.631,7.066 -3.265,7.685 -0.58,0.22 -1.151,0.105 -1.578,-0.308 -1.332,-1.292 -2.821,-11.219 0.429,-17.977 2.413,-5.016 6.03,-6.403 9.526,-6.403 1.528,0 3.026,0.27 4.397,0.613 0.145,-1.963 0.662,-3.74 1.526,-4.716 1.16,-1.312 3.857,-2.931 7.808,-2.93 2.331,0 5.099,0.564 8.246,2.086 0.549,0.266 1.118,0.546 1.706,0.837 7.837,3.868 18.569,9.165 33.434,4.456 l 0.076,0.24 c 0.598,0.2 1.202,0.383 1.821,0.538 -0.121,-2.374 -0.883,-4.175 -2.279,-5.36 -0.073,-0.061 -0.15,-0.11 -0.225,-0.167 -0.005,0.06 -0.011,0.116 -0.016,0.178 -0.16,1.913 -0.43,5.114 -4.48,5.735 -2.415,0.369 -5.12,-1.421 -6.311,-4.163 -1.189,-2.736 -0.476,-5.493 1.91,-7.375 1.864,-1.47 4.18,-2.243 6.544,-2.243 1.002,0 2.014,0.139 3.003,0.423 3.309,0.948 5.871,3.344 7.007,6.515 0.155,0.338 0.291,0.676 0.42,1.013 1.335,-3.003 4.193,-7.524 10.389,-8.28 0.5,-0.062 0.972,-0.09 1.417,-0.09 2.873,0 4.639,1.171 5.65,2.235 1.997,2.104 2.333,4.985 2.008,6.838 -0.467,2.206 -2.314,4.13 -4.711,4.93 3.326,0.641 8.738,0.831 15.793,-1.868 2.532,-0.969 4.73,-2.078 6.856,-3.15 3.761,-1.896 7.183,-3.622 11.011,-3.622 1.969,0 4.046,0.457 6.332,1.582 l -0.004,0.008 c 1.776,0.592 3.053,1.512 3.755,2.318 0.847,0.974 1.354,2.748 1.496,4.707 1.345,-0.342 2.812,-0.61 4.311,-0.61 3.44,0 6.999,1.39 9.371,6.408 3.193,6.756 1.73,16.678 0.421,17.969 -0.418,0.414 -0.986,0.529 -1.555,0.316 -1.617,-0.607 -2.907,-3.689 -3.229,-7.691 -0.603,-0.939 -6.791,-3.198 -11.922,-2.373 -1.545,0.24 -2.674,-0.032 -3.364,-0.805 -0.796,-0.894 -0.907,-2.327 -0.34,-4.378 0.285,-1.03 0.606,-2.462 0.115,-3.024 -0.336,-0.384 -1.167,-0.497 -2.401,-0.326 -1.311,0.181 -3.347,0.988 -5.706,1.923 -4.305,1.708 -9.62,3.817 -14.767,3.933 -0.067,2.346 -1.015,4.839 -2.711,6.94 -1.615,1.997 -3.65,3.37 -5.775,3.952 4.271,3.234 10.913,10.16 14.992,14.633 l 0.484,0.167 c 2.161,0.753 3.325,1.104 4.094,0.266 0.03,-0.033 0.042,-0.1 0.035,-0.199 -0.091,-1.26 -2.69,-4.246 -6.218,-7.17 -1.022,0.206 -2.109,0.198 -3.224,-0.068 -2.361,-0.563 -4.111,-2.587 -4.678,-5.415 -0.651,-3.239 0.289,-8.261 5.078,-11.754 1.759,-1.284 3.78,-1.929 6.029,-1.929 0.755,0 1.536,0.072 2.341,0.218 6.327,1.145 12.275,6.385 15.364,11.07 2.947,4.471 4.477,10.378 4.457,15.94 l 0.027,-0.002 c 0.651,8.309 -2.273,14.533 -8.02,17.077 -4.63,2.049 -10.259,1.121 -13.39,-2.205 l 0.008,-0.007 c -0.244,-0.196 -0.491,-0.384 -0.727,-0.599 -1.705,-1.639 -2.352,-4.176 -1.874,-6.852 -1.733,-0.297 -5.457,-1.069 -9.265,-2.718 -3.557,-1.541 -3.919,-1.388 -5.932,-0.549 -0.687,0.286 -1.542,0.644 -2.699,1.023 -6.686,2.454 -13.525,3.171 -15.672,3.344 -0.077,3.975 -0.023,8.76 0.044,10.481 0.33,0.035 0.67,0.095 1.021,0.182 0.322,-0.002 0.669,0.004 1.051,0.023 1.53,0.074 3.355,0.028 5.326,-0.04 0.256,-0.037 0.52,-0.056 0.786,-0.056 0.084,0 0.168,0.016 0.252,0.02 0.06,-0.003 0.116,-0.004 0.176,-0.007 1.629,-0.059 3.306,-0.111 4.976,-0.126 0.279,-0.055 0.58,-0.09 0.92,-0.09 0.255,0 0.527,0.016 0.815,0.047 0.093,0.009 0.186,0.029 0.278,0.044 2.435,0.044 4.366,0.224 6.001,0.555 0.483,0.098 0.938,0.228 1.4,0.349 0.782,0.081 1.596,0.304 2.368,0.719 0.002,0.001 0.005,0.003 0.007,0.004 1.494,0.527 2.885,1.116 4.167,1.672 1.733,0.751 3.261,1.412 4.465,1.603 0.494,0.007 0.986,0.038 1.431,0.071 l 0.089,0.006 c 2.901,0.057 6.151,0.147 6.815,2.616 0.412,1.533 -0.558,3.323 -2.515,4.982 -0.108,0.11 -0.223,0.208 -0.347,0.292 -1.329,1.052 -3.054,2.042 -5.081,2.866 -2.665,1.084 -6.58,2.875 -10.09,4.785 -0.162,0.123 -0.333,0.22 -0.518,0.281 -1.787,0.99 -3.442,2.003 -4.743,2.96 h 39.515 c -1.963,-2.195 -5.299,-6.439 -7.367,-11.886 -1.815,-4.786 -1.053,-11.011 1.895,-15.493 1.179,-1.791 2.642,-3.176 4.298,-4.128 l -0.007,-0.014 c 0.167,-0.085 0.327,-0.158 0.491,-0.238 0.31,-0.158 0.623,-0.302 0.945,-0.43 1.98,-0.846 3.684,-1.215 5.167,-1.215 3.572,0 5.89,2.091 7.84,4.539 1.651,2.071 1.915,5.1 0.692,7.903 -1.072,2.452 -3.044,4.073 -5.149,4.23 -3.408,0.251 -5.55,-1.315 -6.264,-4.538 -0.406,-0.955 -0.483,-2.054 -0.205,-3.213 -2.184,1.499 -5.516,4.768 -3.52,9.914 1.778,4.579 8.023,10.974 9.965,12.892 0.966,-3.012 3.635,-5.397 6.836,-5.904 0.412,-0.066 0.818,-0.098 1.218,-0.098 3.015,0 5.627,1.832 7.136,5.078 0.084,0.179 0.054,0.391 -0.076,0.54 -0.13,0.149 -0.335,0.209 -0.524,0.149" style="fill:#58698b;fill-opacity:1;fill-rule:nonzero;stroke:none" id="path46"/></g><g id="g48" transform="translate(135.7305,9.3965)"><path d="M 0,0 H 4.562 C 6.001,0 7.053,0.262 7.718,0.786 8.383,1.312 8.716,2.102 8.716,3.159 8.716,3.846 8.552,4.434 8.225,4.923 7.896,5.411 7.5,5.747 7.035,5.929 6.57,6.109 5.732,6.2 4.52,6.2 H 0 Z M -2.334,-9.101 V 8.248 h 6.647 c 1.566,0 2.72,-0.111 3.464,-0.332 1.017,-0.3 1.828,-0.855 2.436,-1.668 0.605,-0.812 0.91,-1.811 0.91,-2.994 0,-1.563 -0.494,-2.836 -1.482,-3.822 C 8.652,-1.555 6.945,-2.048 4.52,-2.048 H 0 v -7.053 z" style="fill:#58698b;fill-opacity:1;fill-rule:nonzero;stroke:none" id="path50"/></g><g id="g52" transform="translate(158.0469,7.4199)"><path d="M 0,0 H 6.01 L 4.176,4.805 C 3.609,6.279 3.193,7.479 2.93,8.402 2.701,7.289 2.379,6.185 1.963,5.089 Z M -5.061,-7.124 1.742,10.225 H 4.238 L 11.463,-7.124 H 8.791 L 6.74,-1.87 H -0.682 L -2.6,-7.124 Z" style="fill:#58698b;fill-opacity:1;fill-rule:nonzero;stroke:none" id="path54"/></g><g id="g56" transform="translate(180.5586,9.9873)"><path d="M 0,0 H 5.019 C 6.114,0 6.945,0.107 7.513,0.32 8.08,0.533 8.53,0.868 8.863,1.326 9.195,1.783 9.362,2.315 9.362,2.924 9.362,3.799 9.044,4.487 8.408,4.988 7.772,5.489 6.828,5.74 5.576,5.74 H 0 Z M -2.333,-9.691 V 7.657 h 7.821 c 1.634,0 2.839,-0.162 3.617,-0.485 0.778,-0.323 1.416,-0.861 1.916,-1.614 0.498,-0.753 0.748,-1.626 0.748,-2.62 0,-1.308 -0.423,-2.369 -1.27,-3.181 C 9.653,-1.055 8.423,-1.571 6.809,-1.792 7.464,-2.11 7.963,-2.432 8.306,-2.757 9,-3.42 9.611,-4.157 10.14,-4.97 l 3.082,-4.721 h -2.936 l -2.352,3.607 c -0.912,1.411 -1.599,2.361 -2.064,2.852 -0.464,0.49 -0.913,0.82 -1.348,0.99 -0.435,0.17 -1.043,0.255 -1.825,0.255 H 0 v -7.704 z" style="fill:#58698b;fill-opacity:1;fill-rule:nonzero;stroke:none" id="path58"/></g><path d="m 203.347,17.645 h 2.333 V 0.296 h -2.333 z" style="fill:#58698b;fill-opacity:1;fill-rule:nonzero;stroke:none" id="path60"/><g id="g62" transform="translate(215.8486,5.8818)"><path d="m 0,0 2.201,0.188 c 0.117,-0.954 0.384,-1.697 0.8,-2.23 0.415,-0.532 1.01,-0.96 1.782,-1.283 0.774,-0.324 1.644,-0.486 2.613,-0.486 1.388,0 2.467,0.274 3.235,0.821 0.768,0.547 1.152,1.258 1.152,2.132 0,0.511 -0.139,0.958 -0.418,1.339 -0.279,0.382 -0.7,0.696 -1.262,0.94 C 9.54,1.664 8.325,2.01 6.456,2.455 4.793,2.854 3.609,3.254 2.905,3.656 2.201,4.059 1.653,4.569 1.262,5.188 0.87,5.808 0.675,6.508 0.675,7.289 c 0,1.404 0.562,2.552 1.687,3.443 1.125,0.892 2.642,1.338 4.549,1.338 1.312,0 2.458,-0.209 3.442,-0.627 0.983,-0.419 1.746,-1.018 2.289,-1.798 0.543,-0.782 0.834,-1.701 0.873,-2.758 L 11.27,6.722 C 11.152,7.85 10.734,8.686 10.015,9.23 9.296,9.774 8.286,10.047 6.984,10.047 5.664,10.047 4.656,9.808 3.962,9.331 3.268,8.854 2.92,8.236 2.92,7.479 2.92,6.776 3.175,6.232 3.684,5.846 4.192,5.459 5.336,5.068 7.116,4.672 8.856,4.283 10.078,3.946 10.782,3.661 11.858,3.218 12.671,2.635 13.22,1.914 c 0.549,-0.721 0.823,-1.582 0.823,-2.583 0,-0.993 -0.289,-1.897 -0.866,-2.713 C 12.6,-4.197 11.814,-4.817 10.822,-5.243 9.829,-5.669 8.633,-5.882 7.234,-5.882 5.053,-5.882 3.313,-5.354 2.018,-4.296 0.722,-3.239 0.049,-1.807 0,0" style="fill:#58698b;fill-opacity:1;fill-rule:nonzero;stroke:none" id="path64"/></g><g id="g66" transform="translate(344.252,86.2939)"><path d="m 0,0 c -8.5,-1.625 -13.125,-6.75 -13.125,-6.75 0,0 18.5,7.375 24.25,-6.625 5.75,-14 -5,-29.25 -22,-32.25 -7.5,-0.75 -15.25,4.125 -20.25,6.625 -5,2.5 -33.75,14.875 -53.5,-0.375 6.579,5.312 13.344,10.831 19.48,16.042 h 15.02 v 2.166 h -12.484 c 8.471,7.29 15.428,13.805 18.484,18.042 -12.375,-5.375 -16.625,-11.25 -29.625,-7 -1.75,2.75 0.125,3 1.375,6.375 1.25,3.375 -1.625,10.125 -9,6 -5.625,-3.625 -0.727,-11.658 0.25,-13.25 -7.875,-7.375 -32,-31.25 -50.875,-33.75 -7.25,-1 -7,4.625 -1.125,12.125 3.721,4.75 19.222,27.096 30.091,42.846 h 27.076 v 2.446 h -25.389 C -95.913,20.547 -92,26.25 -92,26.25 L -105.5,26 -114.821,12.667 h -14.137 v -2.446 h 12.427 l -27.594,-39.471 c 0,0 -15.5,-12.5 -24.25,-14.625 -8.75,-2.125 -10,4.5 -6,10.25 4,5.75 19.25,29.125 19.25,29.125 l -13.25,-0.25 -17,-24.875 c 0,0 -16.125,-13.625 -23.625,-12.75 -4.375,0.625 -1.875,8.625 1,16 2.875,7.375 15,28.375 5.875,38.75 14.875,2.625 31.625,11.5 41.5,26.25 9.875,14.75 13.25,38.75 -10.625,50.875 -12.25,5.875 -31.375,-0.125 -39.375,-3.625 -8,-3.5 -19.75,-4.5 -32.125,0.125 -12.375,4.625 -33.25,7.5 -55.625,-15 C -320.75,48.5 -311,20.75 -289.5,16.25 c 21.5,-4.5 33.167,7.166 37.209,16.083 h -1.667 c 0,0 -9.5,-12.168 -22.833,-11.834 -13.334,0.334 -31.5,13.334 -19.834,36.667 11.666,23.333 43.334,30.166 54.334,25.833 11,-4.333 19.833,-5.832 35.5,-0.166 15.666,5.666 33.666,2.332 38.832,-13.501 5.168,-15.833 -4.832,-46.332 -36.499,-53.666 -7.167,7.666 -22.5,8.333 -22.5,2.333 0,-6 14.333,-6.833 20.667,-6.5 2.833,-10.333 -12.668,-29.833 -15.334,-38.833 -2.666,-9 -5,-20 9.167,-20.667 10.167,-0.5 25.833,13.5 25.833,13.5 0,0 -3.666,-8.999 3.167,-12.833 6.833,-3.834 15.499,-2.834 37.166,12.333 0.167,-10 2.167,-18.499 21.667,-11.333 19.5,7.166 45.167,34.833 45.667,34.833 0.5,0 13.583,-6.749 25.583,2.251 -3.988,-3.465 -8.764,-7.641 -13.641,-11.917 h -11.609 v -2.166 h 9.14 c -12.991,-11.399 -25.89,-22.792 -25.89,-22.792 0,0 20.125,12.25 31,9.625 17.25,-3.75 29.75,-16.125 40.25,-16 10.5,0.125 29.75,5.25 40.5,21.375 C 27.125,-15 18,3.625 0,0" style="fill:#58698b;fill-opacity:1;fill-rule:nonzero;stroke:none" id="path68"/></g><g id="g70" transform="translate(155.002,156.7939)"><path d="m 0,0 h -3.875 c 0,0 -25.5,-13.25 -42.125,-36.375 -16.625,-23.125 -24.75,-47.875 -39.5,-64 -14.75,-16.125 -30.375,-21.625 -47.625,-13.625 -17.25,8 -17,32.625 1,39 16.25,4.375 23.25,-9.25 20.625,-17.75 6.125,5.625 9.875,15.375 -1.625,22.5 -11.5,7.125 -41.625,-3.875 -41.875,-26.375 -0.25,-22.5 31.75,-29.75 56.125,-19.125 24.375,10.625 38.5,29.625 49.875,51.75 11.375,22.125 19.75,40.75 27,47.875 C -14.75,-9 0,0 0,0" style="fill:#58698b;fill-opacity:1;fill-rule:nonzero;stroke:none" id="path72"/></g><g id="g74" transform="translate(200.6689,103.6279)"><path d="M 0,0 C 3.476,0 6.292,2.463 6.292,5.5 6.292,8.537 3.476,11 0,11 -3.476,11 -6.292,8.537 -6.292,5.5 -6.292,2.463 -3.476,0 0,0" style="fill:#58698b;fill-opacity:1;fill-rule:nonzero;stroke:none" id="path76"/></g></g></g></g></svg>